<svg width="99" height="99" viewBox="0 0 99 99" fill="none" xmlns="http://www.w3.org/2000/svg">
<rect width="99" height="99" rx="49.5" fill="white" fill-opacity="0.8"/>
<path d="M40.8339 16.8573C40.9112 16.8986 40.9874 16.942 41.0624 16.9874C41.1055 17.0117 41.1486 17.036 41.1929 17.061C41.4186 17.1935 41.4186 17.1935 41.5124 17.2686C41.5124 17.3058 41.5124 17.3429 41.5124 17.3811C41.5437 17.395 41.5751 17.409 41.6073 17.4233C41.7613 17.5065 41.888 17.6025 42.0187 17.7186C42.0187 17.7558 42.0187 17.7929 42.0187 17.8311C42.0558 17.8311 42.0929 17.8311 42.1312 17.8311C42.1312 17.8683 42.1312 17.9054 42.1312 17.9436C42.1683 17.9436 42.2054 17.9436 42.2437 17.9436C42.2437 17.9808 42.2437 18.0179 42.2437 18.0561C42.2907 18.077 42.2907 18.077 42.3386 18.0983C42.4925 18.1815 42.6192 18.2775 42.7499 18.3936C42.7499 18.4308 42.7499 18.4679 42.7499 18.5061C42.787 18.5061 42.8242 18.5061 42.8624 18.5061C42.8624 18.5433 42.8624 18.5804 42.8624 18.6186C42.8953 18.6338 42.9282 18.649 42.9621 18.6647C43.0873 18.731 43.1847 18.8035 43.2929 18.8946C43.3315 18.9269 43.3702 18.9592 43.41 18.9924C43.4509 19.0269 43.4918 19.0613 43.5339 19.0968C44.1557 19.6142 44.7945 20.102 45.4556 20.5682C45.5682 20.6477 45.6807 20.7275 45.7931 20.8073C46.1878 21.0871 46.5839 21.3647 46.9827 21.6386C47.02 21.6642 47.0573 21.6899 47.0957 21.7163C47.2656 21.8331 47.4359 21.9491 47.6079 22.0628C48.2878 22.5186 48.9271 23.0424 49.4437 23.6811C49.6299 23.619 49.662 23.5795 49.7812 23.4315C50.3418 22.7731 51.04 22.2939 51.7558 21.8207C52.1992 21.5257 52.6305 21.2129 53.0634 20.9029C53.1989 20.8059 53.3345 20.7093 53.4704 20.6129C54.1568 20.1254 54.8212 19.6196 55.469 19.0818C55.506 19.0511 55.5431 19.0204 55.5812 18.9888C55.6503 18.9309 55.7189 18.8726 55.787 18.8136C56.0134 18.6186 56.0134 18.6186 56.1374 18.6186C56.1374 18.5815 56.1374 18.5444 56.1374 18.5061C56.1745 18.5061 56.2117 18.5061 56.2499 18.5061C56.2499 18.469 56.2499 18.4319 56.2499 18.3936C56.3321 18.3088 56.3321 18.3088 56.4398 18.2178C56.475 18.1875 56.5102 18.1572 56.5465 18.126C56.6437 18.0561 56.6437 18.0561 56.7562 18.0561C56.7562 18.019 56.7562 17.9819 56.7562 17.9436C56.7933 17.9436 56.8304 17.9436 56.8687 17.9436C56.8687 17.9065 56.8687 17.8694 56.8687 17.8311C56.9058 17.8311 56.9429 17.8311 56.9812 17.8311C56.9812 17.794 56.9812 17.7569 56.9812 17.7186C57.0633 17.6338 57.0633 17.6338 57.171 17.5428C57.2239 17.4974 57.2239 17.4974 57.2778 17.451C57.3749 17.3811 57.3749 17.3811 57.4874 17.3811C57.4874 17.344 57.4874 17.3069 57.4874 17.2686C57.6109 17.1755 57.6109 17.1755 57.7757 17.0718C57.8292 17.0375 57.8827 17.0033 57.9379 16.968C58.3721 16.7277 58.7994 16.7119 59.2874 16.7624C59.4953 16.8362 59.5847 16.9619 59.6824 17.1604C60.3965 18.8893 60.2611 21.3671 59.6812 23.1186C59.7469 23.1105 59.8126 23.1024 59.8802 23.094C61.2197 22.941 62.5613 22.9743 63.8999 23.1186C63.9399 23.1225 63.9799 23.1264 64.0211 23.1305C65.8149 23.3062 67.4053 24.0705 68.8719 25.082C69.0412 25.1973 69.2146 25.3065 69.3876 25.4161C69.4143 25.4376 69.4411 25.459 69.4687 25.4811C69.4687 25.5183 69.4687 25.5554 69.4687 25.5936C69.5429 25.6122 69.6172 25.6308 69.6937 25.6499C69.6937 25.687 69.6937 25.7241 69.6937 25.7624C69.7525 25.7805 69.7525 25.7805 69.8125 25.7991C70.017 25.8945 70.1626 26.033 70.323 26.1878C70.5257 26.3918 70.5257 26.3918 70.7624 26.5499C70.7624 26.587 70.7624 26.6241 70.7624 26.6624C70.8367 26.6995 70.9109 26.7366 70.9874 26.7749C70.9874 26.812 70.9874 26.8491 70.9874 26.8874C71.0201 26.9017 71.0527 26.9161 71.0863 26.9309C71.2255 27.007 71.318 27.0918 71.4297 27.2042C71.4907 27.2653 71.4907 27.2653 71.5529 27.3277C71.6158 27.3917 71.6158 27.3917 71.68 27.4569C71.7419 27.5189 71.7419 27.5189 71.8051 27.5822C72.5178 28.3005 73.1648 29.0953 73.7437 29.9249C73.7664 29.9573 73.7891 29.9897 73.8125 30.0232C74.1674 30.5305 74.5087 31.0457 74.8427 31.5669C74.9791 31.7793 75.1208 31.9877 75.2666 32.1938C75.3187 32.2874 75.3187 32.2874 75.3187 32.4561C75.3558 32.4561 75.3929 32.4561 75.4312 32.4561C75.4754 32.5384 75.4754 32.5384 75.5206 32.6222C75.9691 33.4462 76.4587 34.2447 76.9499 35.0436C76.9802 35.0929 77.0104 35.1422 77.0416 35.193C77.2893 35.5961 77.5413 35.9939 77.8159 36.3793C77.912 36.5143 78.0064 36.6503 78.0995 36.7874C78.1273 36.828 78.1551 36.8686 78.1837 36.9104C78.2437 37.0124 78.2437 37.0124 78.2437 37.1249C78.2808 37.1249 78.3179 37.1249 78.3562 37.1249C78.4242 37.21 78.4879 37.2987 78.5495 37.3885C78.9064 37.8913 79.31 38.3521 79.7273 38.8053C80.0803 39.1904 80.3308 39.4781 80.3425 40.0182C80.3456 40.1138 80.3456 40.1138 80.3489 40.2114C80.32 40.4234 80.2678 40.4844 80.0999 40.6124C79.1074 40.9432 77.8092 40.3832 76.8937 39.9936C76.901 40.0329 76.9084 40.0721 76.9159 40.1125C77.0546 40.8546 77.191 41.597 77.3185 42.3411C77.3694 42.6363 77.4234 42.9306 77.4813 43.2245C78.1804 46.7852 78.5922 50.5292 78.1542 54.1464C78.1326 54.3255 78.1131 54.5047 78.0943 54.6841C77.8937 56.5169 77.4794 58.292 76.855 60.0257C76.8391 60.0697 76.8233 60.1138 76.8069 60.1592C76.761 60.2861 76.7146 60.4128 76.668 60.5394C76.6544 60.5767 76.6408 60.614 76.6268 60.6525C76.5401 60.8851 76.4386 61.1051 76.3237 61.3253C76.2677 61.434 76.2677 61.434 76.2187 61.5936C76.1815 61.5936 76.1444 61.5936 76.1062 61.5936C76.098 61.6366 76.0899 61.6795 76.0816 61.7237C76.0499 61.8749 76.0499 61.8749 75.9937 62.0436C75.9565 62.0436 75.9194 62.0436 75.8812 62.0436C75.8773 62.0811 75.8733 62.1186 75.8693 62.1572C75.8087 62.386 75.6925 62.5598 75.5648 62.7573C75.5392 62.7974 75.5136 62.8375 75.4873 62.8788C75.0074 63.627 74.4696 64.328 73.9019 65.0113C73.7937 65.1412 73.7937 65.1412 73.6874 65.3061C73.6503 65.3061 73.6132 65.3061 73.5749 65.3061C73.5604 65.3389 73.546 65.3716 73.5311 65.4053C73.4563 65.5423 73.374 65.6341 73.264 65.7445C73.2244 65.7843 73.1847 65.8242 73.1439 65.8653C73.0806 65.9278 73.0806 65.9278 73.0159 65.9917C72.9728 66.0345 72.9297 66.0774 72.8853 66.1215C72.5673 66.4345 72.2389 66.7188 71.8874 66.9936C71.8109 67.06 71.7347 67.1268 71.6589 67.194C71.4937 67.3311 71.4937 67.3311 71.3812 67.3311C71.3812 67.3683 71.3812 67.4054 71.3812 67.4436C71.2735 67.5229 71.2735 67.5229 71.121 67.6159C70.9051 67.7485 70.6928 67.8842 70.4828 68.026C69.9024 68.4137 69.2212 68.8021 68.5124 68.8007C68.4428 68.8008 68.3732 68.8009 68.3015 68.8011C68.1187 68.7936 68.1187 68.7936 67.9499 68.7374C67.7863 68.5435 67.7531 68.3659 67.7603 68.1147C67.7935 67.8525 67.8583 67.5979 67.9261 67.3426C67.9924 67.0868 68.0173 66.8643 68.0062 66.5999C67.969 66.5999 67.9319 66.5999 67.8937 66.5999C67.8872 66.6413 67.8808 66.6828 67.8741 66.7255C67.8367 66.884 67.7871 66.9842 67.7001 67.1206C67.6721 67.1648 67.6441 67.209 67.6153 67.2545C67.5853 67.3006 67.5554 67.3468 67.5245 67.3944C67.494 67.4422 67.4635 67.4899 67.432 67.5391C67.235 67.8448 67.0295 68.1405 66.8109 68.4311C66.6739 68.6225 66.5583 68.8243 66.4439 69.0298C66.4211 69.0633 66.3984 69.0967 66.3749 69.1311C66.3378 69.1311 66.3007 69.1311 66.2624 69.1311C66.2473 69.1633 66.2323 69.1955 66.2167 69.2287C66.1476 69.3606 66.0697 69.4756 65.9812 69.5952C65.9377 69.6548 65.9377 69.6548 65.8933 69.7156C65.8666 69.7455 65.8399 69.7753 65.8124 69.8061C65.7753 69.8061 65.7382 69.8061 65.6999 69.8061C65.6869 69.837 65.6738 69.868 65.6603 69.8998C65.3456 70.4666 64.7312 70.9525 64.2738 71.4083C64.1699 71.5119 64.0664 71.6157 63.9629 71.7196C63.6327 72.05 63.3014 72.374 62.9437 72.6749C62.8766 72.733 62.8097 72.7912 62.7428 72.8496C62.5661 73.0029 62.3891 73.156 62.212 73.309C62.0998 73.4062 61.988 73.5038 61.8762 73.6015C61.8055 73.6629 61.7347 73.7244 61.664 73.7858C61.6311 73.8147 61.5983 73.8436 61.5644 73.8733C61.4245 73.9944 61.3211 74.0782 61.1437 74.1374C61.1437 74.1745 61.1437 74.2116 61.1437 74.2499C61.0369 74.347 61.0369 74.347 60.8976 74.4538C60.8519 74.4893 60.8062 74.5248 60.7591 74.5614C60.6374 74.6436 60.6374 74.6436 60.5249 74.6436C60.5249 74.6808 60.5249 74.7179 60.5249 74.7561C60.4321 74.7933 60.3393 74.8304 60.2437 74.8686C60.2437 74.9058 60.2437 74.9429 60.2437 74.9811C60.132 75.0728 60.132 75.0728 59.9765 75.1815C59.6831 75.3893 59.3952 75.6032 59.1088 75.8205C58.6441 76.1624 58.6441 76.1624 58.4999 76.1624C58.4999 76.1995 58.4999 76.2366 58.4999 76.2749C58.4021 76.3483 58.4021 76.3483 58.2573 76.4366C58.2013 76.4712 58.1452 76.5058 58.0875 76.5414C58.0391 76.5711 58.0391 76.5711 57.9898 76.6013C57.8671 76.6773 57.7454 76.7549 57.6239 76.8328C57.1552 77.1324 56.6872 77.4238 56.1937 77.6811C56.1246 77.7184 56.0556 77.7557 55.9867 77.7932C55.4085 78.1065 54.8262 78.3653 54.213 78.6015C53.9702 78.695 53.7294 78.7916 53.4902 78.894C52.6029 79.2671 51.6864 79.5441 50.7446 79.7402C50.7039 79.7488 50.6631 79.7575 50.6212 79.7663C50.5852 79.7737 50.5493 79.7811 50.5123 79.7888C50.3938 79.8174 50.3938 79.8174 50.2631 79.8771C50.0177 79.9689 49.7698 79.9496 49.5105 79.9487C49.4295 79.9501 49.4295 79.9501 49.3469 79.9515C49.0478 79.9517 48.8128 79.9238 48.5379 79.8056C48.354 79.7311 48.1611 79.6992 47.9671 79.6604C46.8908 79.4317 45.8333 79.0834 44.8303 78.6308C44.7067 78.5758 44.5816 78.5267 44.455 78.4792C44.154 78.36 43.867 78.2161 43.5789 78.0689C43.4414 77.9987 43.3032 77.9307 43.1637 77.8646C42.6935 77.6399 42.246 77.3858 41.8007 77.1151C41.7472 77.0826 41.6938 77.0501 41.6387 77.0167C41.3261 76.8243 41.0229 76.6225 40.7244 76.409C40.6155 76.3293 40.6155 76.3293 40.4999 76.2749C40.4999 76.2378 40.4999 76.2006 40.4999 76.1624C40.4437 76.1444 40.4437 76.1444 40.3863 76.1261C40.1613 76.0238 39.981 75.8808 39.7862 75.73C39.4792 75.4951 39.1702 75.2678 38.8476 75.0545C38.8174 75.0303 38.7872 75.0061 38.7562 74.9811C38.7562 74.944 38.7562 74.9069 38.7562 74.8686C38.6634 74.8315 38.5705 74.7944 38.4749 74.7561C38.4749 74.719 38.4749 74.6819 38.4749 74.6436C38.4459 74.6309 38.4169 74.6181 38.387 74.605C38.1995 74.504 38.0166 74.3905 37.8562 74.2499C37.8562 74.2128 37.8562 74.1756 37.8562 74.1374C37.8264 74.125 37.7966 74.1126 37.7659 74.0998C37.5828 73.998 37.4328 73.8635 37.2761 73.726C37.2416 73.6961 37.2072 73.6662 37.1717 73.6354C37.0988 73.5721 37.0261 73.5087 36.9533 73.4452C36.848 73.3537 36.7422 73.2629 36.636 73.1723C35.8235 72.4777 35.0584 71.7385 34.3019 70.9839C34.2515 70.9337 34.2515 70.9337 34.2 70.8825C34.1029 70.7857 34.006 70.6887 33.9092 70.5916C33.8658 70.5484 33.8658 70.5484 33.8216 70.5044C33.2999 69.9794 33.2999 69.9794 33.2999 69.8061C33.2628 69.8061 33.2257 69.8061 33.1874 69.8061C33.078 69.687 33.078 69.687 32.9554 69.5319C32.8943 69.4556 32.8943 69.4556 32.8319 69.3777C32.7374 69.2436 32.7374 69.2436 32.7374 69.1311C32.7003 69.1311 32.6632 69.1311 32.6249 69.1311C32.5416 69.0155 32.5416 69.0155 32.4456 68.8569C32.3188 68.6484 32.1864 68.4473 32.0453 68.248C31.8352 67.95 31.6395 67.6444 31.4472 67.3346C31.4141 67.2823 31.381 67.2299 31.3469 67.1759C31.3157 67.1257 31.2844 67.0755 31.2523 67.0237C31.2242 66.9787 31.196 66.9337 31.167 66.8873C31.1062 66.7686 31.1062 66.7686 31.1062 66.5999C31.069 66.5999 31.0319 66.5999 30.9937 66.5999C30.9807 66.909 31.0271 67.1669 31.1062 67.4647C31.304 68.261 31.304 68.261 31.1448 68.6249C31.016 68.7776 30.9135 68.7906 30.7181 68.809C29.6392 68.8405 28.7201 68.2055 27.8705 67.5983C27.7395 67.5005 27.7395 67.5005 27.6187 67.4436C27.6187 67.4065 27.6187 67.3694 27.6187 67.3311C27.5873 67.3171 27.5559 67.303 27.5235 67.2885C26.7596 66.8775 26.0011 66.0629 25.4249 65.4186C25.4249 65.3815 25.4249 65.3444 25.4249 65.3061C25.3878 65.3061 25.3507 65.3061 25.3124 65.3061C25.2152 65.1933 25.1245 65.0801 25.0347 64.9616C24.9789 64.8891 24.9231 64.8167 24.8672 64.7443C24.8386 64.7069 24.8099 64.6695 24.7804 64.631C24.6969 64.5228 24.6123 64.4156 24.5271 64.3088C24.2471 63.9576 23.9752 63.6064 23.7374 63.2249C23.713 63.1862 23.6886 63.1475 23.6634 63.1077C23.5774 62.9713 23.4921 62.8345 23.4069 62.6975C23.3787 62.6526 23.3505 62.6077 23.3215 62.5615C23.2822 62.4977 23.2822 62.4977 23.2422 62.4325C23.2184 62.3942 23.1946 62.3559 23.1701 62.3164C23.1187 62.2124 23.1187 62.2124 23.1187 62.0436C23.0815 62.0436 23.0444 62.0436 23.0062 62.0436C22.9355 61.8802 22.8937 61.7738 22.8937 61.5936C22.8565 61.5936 22.8194 61.5936 22.7812 61.5936C22.7617 61.5445 22.7617 61.5445 22.7418 61.4943C22.6393 61.2366 22.5348 60.9801 22.4265 60.7248C21.9414 59.5604 21.5648 58.3872 21.3187 57.1499C21.3046 57.082 21.2904 57.0142 21.2759 56.9442C21.0271 55.7454 20.8679 54.5438 20.7562 53.3249C20.7502 53.262 20.7443 53.199 20.7382 53.1342C20.6872 52.5235 20.6886 51.9123 20.6894 51.2999C20.6894 51.2425 20.6895 51.1851 20.6895 51.1259C20.695 48.3496 21.0651 45.5928 21.5815 42.8683C21.6857 42.3159 21.7815 41.7621 21.8781 41.2083C21.9491 40.8023 22.0222 40.3971 22.1062 39.9936C22.0442 40.0194 21.9822 40.0453 21.9183 40.0718C21.1873 40.3699 20.4274 40.6322 19.6312 40.6686C19.5593 40.673 19.5593 40.673 19.4859 40.6774C19.2047 40.6873 19.0151 40.6849 18.7874 40.4999C18.6336 40.3461 18.6563 40.254 18.6538 40.0393C18.6522 39.977 18.6506 39.9148 18.649 39.8506C18.7001 39.4675 18.941 39.1944 19.1882 38.9108C19.2152 38.8793 19.2422 38.8477 19.27 38.8152C19.4432 38.6141 19.6221 38.4192 19.8034 38.2253C20.0503 37.9583 20.2595 37.6743 20.4624 37.3734C20.5203 37.2888 20.5817 37.2065 20.6437 37.1249C20.6808 37.1249 20.7179 37.1249 20.7562 37.1249C20.7757 37.0679 20.7757 37.0679 20.7957 37.0097C20.8873 36.8012 21.0075 36.6233 21.1359 36.4358C21.1836 36.3652 21.2314 36.2946 21.2791 36.224C21.3555 36.1113 21.432 35.9987 21.5087 35.8863C21.7614 35.5123 21.9957 35.1274 22.2292 34.7413C22.2501 34.7068 22.271 34.6724 22.2925 34.6369C22.6508 34.0458 23.0013 33.4505 23.3437 32.8499C23.3867 32.7747 23.4296 32.6994 23.4726 32.6242C23.5202 32.541 23.5202 32.541 23.5687 32.4561C23.6058 32.4561 23.6429 32.4561 23.6812 32.4561C23.6935 32.4205 23.7058 32.3848 23.7185 32.348C23.8242 32.1045 23.9592 31.8818 24.096 31.6546C24.126 31.6048 24.1559 31.555 24.1868 31.5038C24.4833 31.0169 24.8061 30.5527 25.1437 30.0936C25.1712 30.056 25.1988 30.0183 25.2271 29.9795C25.8796 29.089 26.5705 28.2444 27.3374 27.4499C27.3663 27.4198 27.3952 27.3897 27.4249 27.3587C27.7603 27.0099 27.7603 27.0099 27.8999 26.8874C27.937 26.8874 27.9742 26.8874 28.0124 26.8874C28.0495 26.8131 28.0867 26.7389 28.1249 26.6624C28.162 26.6624 28.1992 26.6624 28.2374 26.6624C28.2374 26.6253 28.2374 26.5881 28.2374 26.5499C28.3305 26.4656 28.4273 26.3854 28.5257 26.3073C28.582 26.2623 28.6384 26.2174 28.6964 26.1711C28.7491 26.129 28.8019 26.087 28.8562 26.0436C28.9232 25.9865 28.99 25.9291 29.0566 25.8714C29.1937 25.7624 29.1937 25.7624 29.3062 25.7624C29.3062 25.7253 29.3062 25.6881 29.3062 25.6499C29.3804 25.6313 29.4547 25.6128 29.5312 25.5936C29.5312 25.5565 29.5312 25.5194 29.5312 25.4811C29.6512 25.3914 29.771 25.3091 29.8968 25.228C29.9348 25.2032 29.9727 25.1784 30.0118 25.1529C30.1326 25.0744 30.2537 24.9965 30.3749 24.9186C30.4125 24.8942 30.45 24.8697 30.4887 24.8445C31.0326 24.4905 31.5862 24.1792 32.1749 23.9061C32.2109 23.889 32.2468 23.8718 32.2839 23.8541C33.3202 23.3641 34.4689 23.1485 35.6062 23.0624C35.7002 23.0531 35.7002 23.0531 35.7962 23.0437C36.966 22.942 38.1545 22.9747 39.3187 23.1186C39.3044 23.0755 39.2901 23.0323 39.2754 22.9879C38.7454 21.279 38.5654 18.6878 39.3749 17.0436C39.699 16.6057 40.3661 16.6584 40.8339 16.8573ZM33.4827 30.9971C33.2873 31.028 33.0918 31.0588 32.8962 31.0894C32.776 31.1083 32.6557 31.1273 32.5354 31.1465C32.0908 31.2168 31.6494 31.2762 31.1991 31.2927C31.1373 31.295 31.0755 31.2974 31.0118 31.2998C30.9175 31.3031 30.9175 31.3031 30.8214 31.3065C30.7242 31.3102 30.7242 31.3102 30.6251 31.3139C30.4667 31.3198 30.3083 31.3255 30.1499 31.3311C30.1541 31.3813 30.1584 31.4315 30.1627 31.4832C30.2717 32.8001 30.3504 34.1176 30.4136 35.4374C30.4164 35.496 30.4164 35.496 30.4193 35.5559C30.4425 36.0414 30.4652 36.5269 30.4874 37.0124C30.5988 36.9567 30.5988 36.9567 30.7124 36.8999C30.7124 36.8628 30.7124 36.8256 30.7124 36.7874C30.7436 36.7747 30.7748 36.762 30.8069 36.7489C30.9759 36.653 31.091 36.5299 31.2257 36.3901C31.489 36.1178 31.489 36.1178 31.6124 36.0561C31.6124 36.019 31.6124 35.9819 31.6124 35.9436C31.6495 35.9436 31.6867 35.9436 31.7249 35.9436C31.7249 35.9065 31.7249 35.8694 31.7249 35.8311C31.762 35.8311 31.7992 35.8311 31.8374 35.8311C31.8374 35.794 31.8374 35.7569 31.8374 35.7186C31.8745 35.7186 31.9117 35.7186 31.9499 35.7186C31.9499 35.6815 31.9499 35.6444 31.9499 35.6061C31.9797 35.5946 32.0096 35.583 32.0403 35.5711C32.2311 35.4613 32.3752 35.3094 32.5291 35.1544C32.5625 35.1211 32.5959 35.0878 32.6303 35.0535C32.7006 34.9833 32.7707 34.9129 32.8408 34.8424C32.9484 34.7342 33.0565 34.6267 33.1648 34.5191C33.233 34.4508 33.3012 34.3825 33.3693 34.3141C33.4019 34.2818 33.4344 34.2496 33.4679 34.2163C33.638 34.0671 33.638 34.0671 33.6937 33.8624C33.7296 33.8473 33.7656 33.8322 33.8026 33.8167C33.9373 33.7563 33.9373 33.7563 33.9749 33.5811C34.012 33.5811 34.0492 33.5811 34.0874 33.5811C34.0874 33.544 34.0874 33.5069 34.0874 33.4686C34.1245 33.4686 34.1617 33.4686 34.1999 33.4686C34.2765 33.3762 34.3512 33.2821 34.4249 33.1874C34.5177 33.0927 34.6117 32.9991 34.7062 32.9061C34.7667 32.8462 34.8273 32.7862 34.8878 32.7262C34.9205 32.694 34.9531 32.6617 34.9867 32.6284C35.1328 32.4839 35.2786 32.339 35.4243 32.1941C35.5014 32.1176 35.5786 32.0412 35.6559 31.9649C35.7677 31.8544 35.8791 31.7437 35.9905 31.6328C36.0427 31.5815 36.0427 31.5815 36.0959 31.5291C36.1786 31.4465 36.2583 31.3609 36.3374 31.2749C36.3374 31.2378 36.3374 31.2006 36.3374 31.1624C36.3931 31.1438 36.4488 31.1253 36.5062 31.1061C36.5062 31.069 36.5062 31.0319 36.5062 30.9936C36.5398 30.9797 36.5735 30.9658 36.6081 30.9514C36.7477 30.8717 36.8078 30.7859 36.8999 30.6561C35.751 30.6178 34.6133 30.817 33.4827 30.9971ZM62.0999 30.6561C62.1908 30.7709 62.2847 30.8834 62.3812 30.9936C62.4183 30.9936 62.4554 30.9936 62.4937 30.9936C62.5122 31.0493 62.5308 31.105 62.5499 31.1624C62.587 31.1624 62.6242 31.1624 62.6624 31.1624C62.6777 31.196 62.693 31.2296 62.7088 31.2642C62.7735 31.3848 62.8363 31.4624 62.933 31.5582C62.9647 31.5899 62.9965 31.6217 63.0292 31.6544C63.0634 31.688 63.0976 31.7216 63.1329 31.7563C63.1859 31.8091 63.1859 31.8091 63.2401 31.863C63.3531 31.9755 63.4665 32.0875 63.58 32.1995C63.6557 32.2746 63.7314 32.3498 63.8071 32.425C63.9467 32.5637 64.0864 32.7022 64.2263 32.8405C64.2721 32.886 64.2721 32.886 64.3189 32.9324C64.4001 33.0127 64.4818 33.0925 64.5635 33.1722C64.6874 33.2999 64.6874 33.2999 64.7999 33.4686C64.837 33.4686 64.8742 33.4686 64.9124 33.4686C64.9124 33.5058 64.9124 33.5429 64.9124 33.5811C64.9495 33.5811 64.9867 33.5811 65.0249 33.5811C65.04 33.6171 65.0551 33.6531 65.0706 33.6901C65.131 33.8248 65.131 33.8248 65.3062 33.8624C65.3212 33.8934 65.3363 33.9243 65.3518 33.9563C65.4509 34.1505 65.6048 34.2895 65.7579 34.4416C65.7912 34.475 65.8245 34.5084 65.8588 34.5428C65.929 34.6131 65.9994 34.6832 66.0699 34.7532C66.178 34.8608 66.2856 34.969 66.3932 35.0772C66.4615 35.1455 66.5298 35.2137 66.5982 35.2818C66.6304 35.3143 66.6627 35.3468 66.696 35.3803C66.8452 35.5505 66.8452 35.5505 67.0499 35.6061C67.0499 35.6433 67.0499 35.6804 67.0499 35.7186C67.087 35.7186 67.1242 35.7186 67.1624 35.7186C67.1624 35.7558 67.1624 35.7929 67.1624 35.8311C67.1995 35.8311 67.2367 35.8311 67.2749 35.8311C67.2749 35.8683 67.2749 35.9054 67.2749 35.9436C67.312 35.9436 67.3492 35.9436 67.3874 35.9436C67.3874 35.9808 67.3874 36.0179 67.3874 36.0561C67.4765 36.1463 67.4765 36.1463 67.5913 36.2389C67.7441 36.3681 67.8888 36.4989 68.0273 36.6432C68.1539 36.8005 68.1539 36.8005 68.2874 36.7874C68.2874 36.8245 68.2874 36.8616 68.2874 36.8999C68.3988 36.9556 68.3988 36.9556 68.5124 37.0124C68.5142 36.9744 68.5159 36.9364 68.5177 36.8973C68.54 36.4106 68.5629 35.924 68.5862 35.4374C68.5881 35.3986 68.59 35.3597 68.5919 35.3197C68.6559 33.9883 68.738 32.6594 68.8499 31.3311C68.8176 31.3309 68.7853 31.3307 68.7521 31.3304C67.7305 31.318 66.7429 31.1881 65.7358 31.0334C65.3367 30.9723 64.9372 30.9147 64.5376 30.8574C64.4135 30.8395 64.2895 30.8213 64.1655 30.8031C63.5863 30.7187 63.0095 30.6462 62.4234 30.6526C62.3616 30.6531 62.2998 30.6536 62.2361 30.6542C62.1912 30.6548 62.1462 30.6555 62.0999 30.6561ZM46.2972 32.305C46.2037 32.3232 46.2037 32.3232 46.1084 32.3417C45.6168 32.4401 45.1351 32.5602 44.6554 32.7056C44.559 32.7346 44.4621 32.762 44.3651 32.7892C43.0965 33.1549 41.8835 33.7432 40.7239 34.3658C40.5898 34.4368 40.4539 34.5034 40.3171 34.569C40.0128 34.7193 39.7252 34.8974 39.4356 35.0737C39.2367 35.1946 39.0359 35.3118 38.8346 35.4285C38.4385 35.6587 38.0576 35.8982 37.6874 36.1686C37.5934 36.235 37.4993 36.3015 37.4052 36.3678C37.0951 36.5874 36.7882 36.8113 36.4851 37.0405C36.4533 37.0642 36.4214 37.0879 36.3887 37.1123C36.3132 37.17 36.2406 37.2315 36.1687 37.2936C36.1687 37.3308 36.1687 37.3679 36.1687 37.4061C36.1195 37.4288 36.1195 37.4288 36.0693 37.4518C35.9421 37.5195 35.8421 37.5939 35.7327 37.6874C35.6982 37.7164 35.6637 37.7454 35.6281 37.7753C35.5369 37.8509 35.5369 37.8509 35.5499 37.9686C35.5174 37.9825 35.4849 37.9965 35.4515 38.0108C35.3064 38.0914 35.209 38.1815 35.0999 38.3061C35.0999 38.3433 35.0999 38.3804 35.0999 38.4186C35.0628 38.4186 35.0257 38.4186 34.9874 38.4186C34.8028 38.6107 34.6447 38.8273 34.4812 39.0374C34.4497 39.0775 34.4182 39.1176 34.3857 39.159C32.4032 41.6967 31.3767 44.7322 31.3734 47.96C31.3733 48.0039 31.3732 48.0477 31.3731 48.0929C31.3735 49.0378 31.4492 49.9679 31.5562 50.9061C31.5631 50.969 31.57 51.0319 31.5771 51.0967C31.655 51.7972 31.7702 52.4747 31.9499 53.1561C31.9631 53.2104 31.9763 53.2647 31.9899 53.3207C32.2106 54.1969 32.5762 55.2273 33.1874 55.9124C33.2245 55.9124 33.2617 55.9124 33.2999 55.9124C33.3129 55.9436 33.3259 55.9747 33.3392 56.0069C33.8001 56.829 34.8713 57.4231 35.6624 57.8811C35.7131 57.9105 35.7131 57.9105 35.7648 57.9404C36.5094 58.3615 37.331 58.6182 38.1374 58.8936C38.1467 58.7979 38.1467 58.7979 38.1561 58.7003C38.1651 58.6147 38.1741 58.5292 38.1831 58.4436C38.189 58.3809 38.189 58.3809 38.1951 58.3168C38.2473 57.8365 38.3942 57.48 38.6964 57.1042C38.7206 57.0727 38.7448 57.0413 38.7697 57.0089C38.9017 56.8408 39.0331 56.7113 39.2062 56.5874C39.1929 56.6693 39.1929 56.6693 39.1795 56.7529C39.1463 56.9605 39.1144 57.1682 39.0829 57.376C39.0692 57.465 39.0552 57.554 39.0408 57.6428C38.8149 59.0426 38.9788 60.6007 39.8082 61.7958C39.8323 61.8219 39.8564 61.848 39.8812 61.8749C39.9183 61.8749 39.9554 61.8749 39.9937 61.8749C39.9937 61.912 39.9937 61.9491 39.9937 61.9874C40.1065 62.0797 40.2189 62.1642 40.3382 62.2475C40.3737 62.2725 40.4093 62.2975 40.4459 62.3233C41.1701 62.8251 41.9332 63.2106 42.778 63.4675C43.0889 63.5681 43.3535 63.6925 43.6288 63.8682C43.6767 63.8986 43.6767 63.8986 43.7256 63.9295C43.8903 64.04 44.0201 64.1562 44.1434 64.3097C44.2054 64.3853 44.2054 64.3853 44.2687 64.4624C44.3058 64.4624 44.3429 64.4624 44.3812 64.4624C44.3952 64.4927 44.4092 64.523 44.4236 64.5542C44.9439 65.5427 45.7735 66.63 46.8573 66.9945C48.5948 67.5079 50.9926 67.6275 52.6464 66.7792C53.4084 66.3271 53.8761 65.5918 54.3852 64.888C54.4395 64.814 54.4958 64.7415 54.5525 64.6694C54.6294 64.5787 54.6294 64.5787 54.6187 64.4624C54.6558 64.4624 54.6929 64.4624 54.7312 64.4624C54.7741 64.4067 54.817 64.351 54.8612 64.2936C55.2897 63.7865 55.8882 63.5754 56.4982 63.3733C57.375 63.0793 58.3126 62.608 59.0062 61.9874C59.0062 61.9503 59.0062 61.9131 59.0062 61.8749C59.0433 61.8749 59.0804 61.8749 59.1187 61.8749C59.8664 60.952 60.1709 59.4645 60.0528 58.2946C60.0211 58.0326 59.98 57.7724 59.9378 57.512C59.9239 57.4215 59.9101 57.331 59.8964 57.2405C59.8632 57.0226 59.8288 56.805 59.7937 56.5874C60.419 57.0965 60.7312 57.6559 60.8279 58.4546C60.8423 58.601 60.854 58.7468 60.8624 58.8936C61.1819 58.7832 61.5005 58.6705 61.8187 58.5561C61.8616 58.5408 61.9046 58.5255 61.9488 58.5097C63.2721 58.0328 64.4164 57.2927 65.4187 56.3061C65.4717 56.2556 65.5248 56.205 65.5795 56.153C65.7128 56.0405 65.7128 56.0405 65.6999 55.9124C65.737 55.9124 65.7742 55.9124 65.8124 55.9124C65.9073 55.7794 65.9944 55.6472 66.0796 55.5081C66.1048 55.4672 66.13 55.4264 66.156 55.3843C67.077 53.8665 67.3168 52.1343 67.4999 50.3999C67.5066 50.3409 67.5133 50.2819 67.5201 50.2212C67.6027 49.4854 67.6235 48.7525 67.6265 48.0128C67.6268 47.9706 67.6271 47.9285 67.6274 47.8851C67.6405 45.4802 67.0087 42.9795 65.8124 40.8936C65.7902 40.8549 65.7681 40.8161 65.7452 40.7762C65.3971 40.1762 64.985 39.6331 64.5515 39.0926C64.472 38.9932 64.3938 38.893 64.3161 38.7922C64.2762 38.7408 64.2363 38.6895 64.1952 38.6366C64.1619 38.5935 64.1285 38.5505 64.0942 38.5061C64.0672 38.4772 64.0402 38.4484 64.0124 38.4186C63.9753 38.4186 63.9382 38.4186 63.8999 38.4186C63.886 38.3861 63.8721 38.3537 63.8577 38.3202C63.7771 38.1751 63.6871 38.0777 63.5624 37.9686C63.5253 37.9686 63.4882 37.9686 63.4499 37.9686C63.4354 37.9353 63.4209 37.9019 63.406 37.8676C63.3319 37.7337 63.2572 37.6587 63.1405 37.5608C63.1063 37.5315 63.0721 37.5022 63.0368 37.472C62.9474 37.3953 62.9474 37.3953 62.8312 37.4061C62.8312 37.369 62.8312 37.3319 62.8312 37.2936C62.7289 37.2055 62.6265 37.1244 62.5183 37.044C62.4857 37.0194 62.453 36.9948 62.4194 36.9695C62.3132 36.8896 62.2066 36.8104 62.0999 36.7311C62.0644 36.7046 62.029 36.678 61.9924 36.6506C61.3615 36.1779 60.7084 35.7575 60.031 35.3543C59.8603 35.2526 59.6906 35.1496 59.5212 35.0458C58.9493 34.6968 58.3743 34.3737 57.7687 34.0874C57.7337 34.0707 57.6987 34.054 57.6627 34.0367C55.9331 33.2076 55.9331 33.2076 54.1124 32.6249C54.0595 32.612 54.0065 32.5991 53.9519 32.5858C52.7404 32.2933 51.5726 32.0542 50.3219 32.0529C50.2577 32.0527 50.1935 32.0526 50.1274 32.0524C49.9924 32.0521 49.8575 32.0519 49.7225 32.052C49.519 32.0518 49.3155 32.0508 49.112 32.0497C48.1492 32.0473 47.2424 32.1187 46.2972 32.305Z" fill="#1C274C"/>
<path d="M52.3688 51.4898C52.4571 51.4951 52.4571 51.4951 52.5471 51.5005C54.4313 51.6169 54.4313 51.6169 54.9563 51.8624C55.0554 52.8998 54.7183 53.8368 54.106 54.671C54.071 54.7094 54.0361 54.7478 54.0001 54.7874C53.963 54.7874 53.9258 54.7874 53.8876 54.7874C53.8723 54.8206 53.857 54.8537 53.8412 54.8879C53.6432 55.2608 53.2925 55.5579 52.9981 55.8562C52.9496 55.9058 52.9496 55.9058 52.9001 55.9565C52.8189 56.0378 52.7347 56.116 52.6501 56.1937C52.613 56.1937 52.5758 56.1937 52.5376 56.1937C52.5376 56.2308 52.5376 56.2679 52.5376 56.3062C52.5005 56.3062 52.4633 56.3062 52.4251 56.3062C52.4251 56.3433 52.4251 56.3804 52.4251 56.4187C52.3238 56.5103 52.3238 56.5103 52.1825 56.6191C51.9667 56.7864 51.7573 56.9585 51.5497 57.1359C51.3589 57.2954 51.2012 57.401 50.9661 57.4804C50.7568 57.5661 50.6818 57.6531 50.5899 57.8601C50.4177 58.446 50.4806 59.2397 50.7376 59.7937C51.2947 60.8131 52.3848 61.3504 53.42 61.7765C53.9192 61.986 53.9192 61.986 54.1126 62.2124C54.1856 62.4396 54.1987 62.5465 54.0915 62.7609C53.8143 62.9984 53.4557 63.0971 53.0916 63.078C52.3278 62.9742 51.5909 62.6326 50.8852 62.339C50.745 62.2812 50.6047 62.2235 50.4644 62.1659C50.3781 62.1304 50.2919 62.0947 50.2057 62.059C49.6595 61.8327 49.3379 61.8283 48.7954 62.0521C48.7368 62.0772 48.6781 62.1022 48.6177 62.1281C48.4925 62.1798 48.3673 62.2314 48.2421 62.283C48.1797 62.3089 48.1172 62.3349 48.0528 62.3617C45.938 63.2327 45.938 63.2327 45.1664 62.9422C44.996 62.8574 44.9163 62.7762 44.8313 62.6062C44.8173 62.4128 44.8173 62.4128 44.8876 62.2124C45.1712 61.9334 45.5243 61.7769 45.886 61.6253C46.8093 61.2229 47.9385 60.6667 48.3331 59.6687C48.5008 59.0445 48.5328 58.4065 48.3786 57.7792C48.234 57.5557 48.1046 57.5121 47.8664 57.4075C47.5912 57.2606 47.3713 57.051 47.138 56.8461C47.0041 56.7304 46.8723 56.6267 46.7263 56.5277C46.6764 56.4917 46.6265 56.4557 46.5751 56.4187C46.5751 56.3816 46.5751 56.3444 46.5751 56.3062C46.538 56.3062 46.5008 56.3062 46.4626 56.3062C46.4626 56.2691 46.4626 56.2319 46.4626 56.1937C46.4301 56.1795 46.3976 56.1653 46.3642 56.1507C46.2219 56.0726 46.1267 55.984 46.0124 55.8689C45.9707 55.8272 45.929 55.7854 45.8861 55.7424C45.8217 55.6769 45.8217 55.6769 45.7559 55.6101C45.7128 55.5669 45.6696 55.5237 45.6251 55.4791C45.1126 54.9626 45.1126 54.9626 45.1126 54.7874C45.0755 54.7874 45.0383 54.7874 45.0001 54.7874C44.9109 54.6802 44.9109 54.6802 44.8102 54.5343C44.7773 54.4873 44.7444 54.4403 44.7105 54.3919C44.2122 53.593 43.9804 52.8011 44.0438 51.8624C44.3936 51.6838 44.7278 51.6435 45.1161 51.6058C45.2191 51.5955 45.2191 51.5955 45.3241 51.585C47.6669 51.3625 50.0208 51.3475 52.3688 51.4898Z" fill="#1C274C"/>
<path d="M62.4936 43.3688C62.5282 43.9143 62.3672 44.2951 62.0315 44.7227C61.852 44.9167 61.6474 45.0826 61.4248 45.225C61.3877 45.225 61.3506 45.225 61.3123 45.225C61.3123 45.2622 61.3123 45.2993 61.3123 45.3375C61.2302 45.4101 61.2302 45.4101 61.1225 45.4852C61.0873 45.5103 61.052 45.5354 61.0157 45.5612C60.9186 45.6188 60.9186 45.6188 60.8061 45.6188C60.8061 45.6559 60.8061 45.693 60.8061 45.7313C60.6905 45.8269 60.6905 45.8269 60.5319 45.9387C60.4752 45.9789 60.4186 46.0191 60.3603 46.0604C60.3032 46.1003 60.2461 46.1402 60.1873 46.1813C60.1148 46.2324 60.1148 46.2324 60.0408 46.2846C59.9511 46.3475 59.8614 46.4103 59.7714 46.4728C59.6792 46.5371 59.5872 46.6018 59.4956 46.6668C59.16 46.9046 58.8178 47.1284 58.4682 47.345C58.4186 47.3762 58.3691 47.4074 58.318 47.4396C58.0125 47.6292 57.7067 47.7873 57.3748 47.925C57.3176 47.9506 57.2604 47.9762 57.2015 48.0026C56.1604 48.4539 56.1604 48.4539 55.6311 48.375C55.4749 48.213 55.4413 48.099 55.4423 47.877C55.4421 47.8229 55.4419 47.7688 55.4418 47.7131C55.4425 47.6548 55.4432 47.5966 55.4439 47.5366C55.444 47.4761 55.4441 47.4156 55.4442 47.3532C55.4446 47.225 55.4454 47.0967 55.4465 46.9685C55.4483 46.7742 55.4488 46.5799 55.4492 46.3856C55.4497 46.2607 55.4503 46.1357 55.4509 46.0108C55.4513 45.9248 55.4513 45.9248 55.4516 45.8371C55.4555 45.4434 55.481 45.0544 55.5186 44.6625C55.5748 44.6466 55.631 44.6307 55.6889 44.6143C55.8678 44.5632 56.046 44.51 56.224 44.4559C61.409 42.8827 61.409 42.8827 62.4936 43.3688Z" fill="#1C274C"/>
<path d="M42.5123 44.3849C42.7517 44.4542 42.9936 44.5089 43.2373 44.561C43.3689 44.6062 43.3689 44.6062 43.4814 44.7749C43.56 45.1742 43.5474 45.5944 43.549 45.9997C43.5493 46.0608 43.5497 46.1219 43.55 46.1848C43.5505 46.3129 43.5509 46.441 43.5511 46.5691C43.5517 46.7654 43.5534 46.9616 43.5552 47.1579C43.5555 47.2828 43.5558 47.4076 43.5561 47.5325C43.5568 47.5911 43.5574 47.6497 43.5582 47.7101C43.558 47.7645 43.5578 47.819 43.5577 47.8751C43.558 47.9468 43.558 47.9468 43.5583 48.0199C43.5326 48.1814 43.4827 48.2586 43.3689 48.3749C42.0128 48.5216 40.5765 47.4188 39.5439 46.6874C39.4548 46.6253 39.3658 46.5632 39.2767 46.5011C39.2313 46.4692 39.1859 46.4373 39.1391 46.4044C39.0528 46.3439 38.9665 46.2834 38.8799 46.2234C38.7705 46.1475 38.6615 46.0712 38.5524 45.9949C38.5171 45.9705 38.4817 45.9462 38.4453 45.9211C38.3594 45.8606 38.2763 45.7962 38.1939 45.7312C38.1939 45.6941 38.1939 45.6569 38.1939 45.6187C38.1625 45.6036 38.1312 45.5885 38.0989 45.573C37.9569 45.5001 37.8205 45.426 37.6876 45.3374C37.6876 45.3003 37.6876 45.2632 37.6876 45.2249C37.6482 45.2122 37.6087 45.1994 37.5681 45.1863C37.1206 44.982 36.7566 44.55 36.5661 44.0999C36.4862 43.8583 36.4906 43.6204 36.5064 43.3687C38.03 42.6858 40.9955 43.918 42.5123 44.3849Z" fill="#1C274C"/>
</svg>
