<svg width="22" height="22" viewBox="0 0 22 22" fill="none" xmlns="http://www.w3.org/2000/svg">
<path fill-rule="evenodd" clip-rule="evenodd" d="M7.73899 4.05778C8.91895 1.65545 11.3904 0 14.25 0C18.2541 0 21.5 3.24594 21.5 7.25C21.5 8.32209 21.2668 9.34176 20.8477 10.2593C20.7383 10.4988 20.717 10.725 20.7656 10.9068L20.893 11.3828C21.3007 12.9066 19.9066 14.3007 18.3828 13.893L17.9068 13.7656C17.7715 13.7294 17.6116 13.732 17.4399 13.7807C16.9298 18.1275 13.2338 21.5 8.75 21.5C7.40003 21.5 6.11949 21.1938 4.9759 20.6463C4.74951 20.5379 4.5266 20.5159 4.34324 20.565L3.1172 20.893C1.59337 21.3007 0.199273 19.9066 0.606997 18.3828L0.93504 17.1568C0.984101 16.9734 0.962113 16.7505 0.853728 16.5241C0.306235 15.3805 0 14.1 0 12.75C0 8.25945 3.38273 4.55897 7.73899 4.05778ZM9.48499 4.03043C13.8098 4.39011 17.2414 7.89511 17.486 12.2516C17.7486 12.2266 18.0214 12.2435 18.2945 12.3166L18.7705 12.444C19.1793 12.5534 19.5534 12.1793 19.444 11.7705L19.3166 11.2945C19.1595 10.7071 19.2619 10.1208 19.4833 9.63611C19.8149 8.91022 20 8.10275 20 7.25C20 4.07436 17.4256 1.5 14.25 1.5C12.2681 1.5 10.5192 2.50284 9.48499 4.03043ZM8.75 5.5C4.74594 5.5 1.5 8.74594 1.5 12.75C1.5 13.871 1.75392 14.9307 2.20667 15.8764C2.44207 16.3681 2.54079 16.9587 2.38407 17.5445L2.05602 18.7705C1.94664 19.1793 2.32066 19.5534 2.72949 19.444L3.95553 19.1159C4.54126 18.9592 5.13191 19.0579 5.62362 19.2933C6.56932 19.7461 7.62896 20 8.75 20C12.7541 20 16 16.7541 16 12.75C16 8.74594 12.7541 5.5 8.75 5.5Z" fill="#1C274C"/>
<path d="M6.25 12.75C6.25 13.3023 5.80228 13.75 5.25 13.75C4.69772 13.75 4.25 13.3023 4.25 12.75C4.25 12.1977 4.69772 11.75 5.25 11.75C5.80228 11.75 6.25 12.1977 6.25 12.75Z" fill="#1C274C"/>
<path d="M9.75 12.75C9.75 13.3023 9.30228 13.75 8.75 13.75C8.19772 13.75 7.75 13.3023 7.75 12.75C7.75 12.1977 8.19772 11.75 8.75 11.75C9.30228 11.75 9.75 12.1977 9.75 12.75Z" fill="#1C274C"/>
<path d="M13.25 12.75C13.25 13.3023 12.8023 13.75 12.25 13.75C11.6977 13.75 11.25 13.3023 11.25 12.75C11.25 12.1977 11.6977 11.75 12.25 11.75C12.8023 11.75 13.25 12.1977 13.25 12.75Z" fill="#1C274C"/>
</svg>
