<svg width="64" height="62" viewBox="0 0 64 62" fill="none" xmlns="http://www.w3.org/2000/svg">
<path opacity="0.5" fill-rule="evenodd" clip-rule="evenodd" d="M32.0001 6.85715C28.0597 6.85715 24.2807 8.42245 21.4945 11.2087C18.7082 13.995 17.1429 17.7739 17.1429 21.7143V33.1429C17.1429 34.0522 16.7817 34.9243 16.1387 35.5672C15.4957 36.2102 14.6237 36.5714 13.7143 36.5714C12.805 36.5714 11.933 36.2102 11.29 35.5672C10.647 34.9243 10.2858 34.0522 10.2858 33.1429V21.7143C10.2858 15.9553 12.5735 10.4322 16.6457 6.35997C20.718 2.28775 26.2411 0 32.0001 0L33.1429 0C38.9019 0 44.425 2.28775 48.4972 6.35997C52.5695 10.4322 54.8572 15.9553 54.8572 21.7143V46.3177C54.8572 50.3954 52.8092 53.9383 50.3178 56.3657C47.8766 58.7474 44.4938 60.5714 41.1429 60.5714C40.2336 60.5714 39.3615 60.2102 38.7186 59.5672C38.0756 58.9243 37.7143 58.0522 37.7143 57.1429C37.7143 56.2336 38.0756 55.3615 38.7186 54.7185C39.3615 54.0755 40.2336 53.7143 41.1429 53.7143C42.1532 53.7143 43.9132 53.0377 45.5315 51.4606C47.0903 49.9337 48.0001 48.064 48.0001 46.3177V21.7143C48.0001 17.7739 46.4348 13.995 43.6485 11.2087C40.8622 8.42245 37.0833 6.85715 33.1429 6.85715H32.0001Z" fill="#93C5FD"/>
<path d="M22.8571 54.9615C22.8571 53.1429 23.5796 51.3987 24.8656 50.1128C26.1515 48.8268 27.8957 48.1044 29.7143 48.1044H36.5714C38.3901 48.1044 40.1342 48.8268 41.4202 50.1128C42.7061 51.3987 43.4286 53.1429 43.4286 54.9615C43.4286 56.7801 42.7061 58.5243 41.4202 59.8102C40.1342 61.0962 38.3901 61.8186 36.5714 61.8186H29.7143C27.8957 61.8186 26.1515 61.0962 24.8656 59.8102C23.5796 58.5243 22.8571 56.7801 22.8571 54.9615ZM0 27.5329C0 25.7143 0.722447 23.9702 2.00841 22.6842C3.29437 21.3982 5.03852 20.6758 6.85714 20.6758H17.1429V38.9615C17.1429 40.1739 16.6612 41.3367 15.8039 42.194C14.9466 43.0513 13.7838 43.5329 12.5714 43.5329H6.85714C5.03852 43.5329 3.29437 42.8105 2.00841 41.5245C0.722447 40.2386 0 38.4944 0 36.6758L0 27.5329ZM48 20.6758H57.1429C58.9615 20.6758 60.7056 21.3982 61.9916 22.6842C63.2776 23.9702 64 25.7143 64 27.5329V36.6758C64 38.4944 63.2776 40.2386 61.9916 41.5245C60.7056 42.8105 58.9615 43.5329 57.1429 43.5329H48V20.6758Z" fill="#93C5FD"/>
</svg>
