<svg width="24" height="24" viewBox="0 0 24 24" fill="none" xmlns="http://www.w3.org/2000/svg">
<path d="M12 8V12L14.5 14.5" stroke="#1C274C" stroke-width="1.63636" stroke-linecap="round" stroke-linejoin="round"/>
<path d="M5.60414 5.60414L5.0256 5.0256V5.0256L5.60414 5.60414ZM4.33776 6.87052L3.51959 6.87463C3.52184 7.32329 3.88499 7.68644 4.33365 7.68869L4.33776 6.87052ZM6.8792 7.70148C7.33106 7.70376 7.69921 7.33929 7.70148 6.88742C7.70375 6.43556 7.33929 6.06741 6.88742 6.06514L6.88331 6.88331L6.8792 7.70148ZM5.14314 4.32086C5.14087 3.86899 4.77272 3.50453 4.32086 3.5068C3.86899 3.50907 3.50453 3.87722 3.5068 4.32908L4.32497 4.32497L5.14314 4.32086ZM3.89416 10.7942C3.95552 10.3465 3.64235 9.93383 3.19466 9.87247C2.74698 9.8111 2.33432 10.1243 2.27295 10.572L3.08355 10.6831L3.89416 10.7942ZM18.3319 5.6681L18.9104 5.08956C15.0641 1.2432 8.8476 1.2036 5.0256 5.0256L5.60414 5.60414L6.18268 6.18268C9.35471 3.01066 14.535 3.02833 17.7534 6.24664L18.3319 5.6681ZM5.6681 18.3319L5.08956 18.9104C8.93592 22.7568 15.1524 22.7964 18.9744 18.9744L18.3959 18.3959L17.8173 17.8173C14.6453 20.9893 9.46495 20.9717 6.24664 17.7534L5.6681 18.3319ZM18.3959 18.3959L18.9744 18.9744C22.7964 15.1524 22.7568 8.93592 18.9104 5.08956L18.3319 5.6681L17.7534 6.24664C20.9717 9.46495 20.9893 14.6453 17.8173 17.8173L18.3959 18.3959ZM5.60414 5.60414L5.0256 5.0256L3.75922 6.29198L4.33776 6.87052L4.9163 7.44906L6.18268 6.18268L5.60414 5.60414ZM4.33776 6.87052L4.33365 7.68869L6.8792 7.70148L6.88331 6.88331L6.88742 6.06514L4.34187 6.05235L4.33776 6.87052ZM4.33776 6.87052L5.15593 6.86641L5.14314 4.32086L4.32497 4.32497L3.5068 4.32908L3.51959 6.87463L4.33776 6.87052ZM3.08355 10.6831L2.27295 10.572C1.86873 13.521 2.8101 16.631 5.08956 18.9104L5.6681 18.3319L6.24664 17.7534C4.34167 15.8484 3.55698 13.2541 3.89416 10.7942L3.08355 10.6831Z" fill="#1C274C"/>
</svg>
