<svg width="92" height="115" viewBox="0 0 92 115" fill="none" xmlns="http://www.w3.org/2000/svg">
<path fill-rule="evenodd" clip-rule="evenodd" d="M47.5678 23.0881C49.2013 24.062 50.8065 24.5328 51.5599 24.3406C53.449 23.8589 53.6229 17.0223 52.1611 14.327C50.6992 11.6318 43.1843 10.4571 42.8056 15.7971C42.6742 17.6505 43.4608 19.3045 44.6231 20.6542L42.5391 30.2636H48.5931L47.5678 23.0881Z" fill="#FDBA74"/>
<path fill-rule="evenodd" clip-rule="evenodd" d="M54.843 10.5905C54.7176 10.1546 54.3804 9.78138 53.9259 9.67067C53.8158 9.64381 53.702 9.63296 53.5887 9.63748C53.548 9.63909 53.5364 9.65069 53.5175 9.62256C53.5034 9.60169 53.503 9.55073 53.4972 9.5262C53.4792 9.44999 53.4567 9.37469 53.4286 9.30137C53.3337 9.05125 53.1739 8.8299 52.9812 8.64343C52.621 8.29457 52.1341 8.05381 51.6283 8.01026C51.3514 7.98642 51.0766 8.03091 50.8149 8.11999C50.6793 8.16611 50.5481 8.22354 50.42 8.28703C50.3815 8.30612 50.2566 8.3997 50.2178 8.39364C50.1752 8.38696 50.0893 8.28199 50.0547 8.25564C49.6254 7.9299 49.0954 7.80185 48.5609 7.80575C47.9573 7.81016 47.3762 7.83999 46.8732 8.20384C46.7666 8.28089 46.6652 8.36523 46.5686 8.45404C46.5177 8.50078 46.4684 8.5493 46.4214 8.59983C46.3931 8.6303 46.3655 8.66147 46.3388 8.69345C46.2938 8.74779 46.3011 8.76564 46.2379 8.72774C45.9955 8.58219 45.7149 8.5141 45.4324 8.54848C45.2644 8.56889 45.1012 8.61875 44.946 8.68435C44.8932 8.70668 44.771 8.79578 44.7148 8.79667C44.6589 8.79751 44.5385 8.71492 44.4809 8.69393C44.1703 8.58051 43.8355 8.55256 43.5091 8.60495C43.1723 8.65903 42.8416 8.79195 42.5562 8.97559C42.4189 9.06392 42.2993 9.16182 42.2032 9.29318C42.1615 9.34989 42.124 9.40988 42.077 9.46247C42.0494 9.49326 41.995 9.52486 41.9802 9.56381C41.9889 9.54048 41.6117 9.39668 41.5761 9.38748C41.3866 9.33848 41.1936 9.34843 41.0079 9.40885C40.6588 9.52251 40.3586 9.77735 40.1119 10.0386C39.985 10.1729 39.8741 10.3212 39.78 10.4793C39.7349 10.555 39.6938 10.6329 39.656 10.7124C39.6376 10.7509 39.6255 10.7991 39.6015 10.8338C39.5703 10.8785 39.5495 10.8794 39.4933 10.8989C39.2076 10.9979 38.9471 11.1655 38.7488 11.3919C38.5481 11.621 38.4179 11.9032 38.3634 12.2003C38.3602 12.2178 38.3583 12.2903 38.3479 12.2998C38.3336 12.3128 38.2762 12.3071 38.2544 12.3096C38.1792 12.3183 38.1046 12.3313 38.0307 12.3486C37.8947 12.3804 37.7625 12.4272 37.6373 12.4885C37.1495 12.7273 36.8006 13.1749 36.6299 13.6786C36.4508 14.2072 36.4539 14.8129 36.6679 15.3316C36.7026 15.4154 36.7437 15.4967 36.7921 15.5737C36.8217 15.6209 36.8314 15.621 36.812 15.6706C36.7904 15.7257 36.7512 15.7793 36.7258 15.8331C36.6425 16.0089 36.5844 16.1954 36.5476 16.3858C36.4873 16.6981 36.4575 17.0264 36.5169 17.3411C36.5445 17.4872 36.5926 17.6301 36.666 17.7603C36.7035 17.8266 36.7473 17.8896 36.7967 17.9478C36.8224 17.9781 36.8498 18.0069 36.8783 18.0346C36.8945 18.0504 36.9158 18.0642 36.9299 18.0819C36.9638 18.1249 36.9708 18.0895 36.9534 18.1527C36.9289 18.241 36.8735 18.3282 36.8396 18.4142C36.8047 18.5028 36.7732 18.5926 36.7444 18.6832C36.6858 18.8669 36.6365 19.0538 36.6055 19.244C36.5462 19.6091 36.5566 19.9982 36.7311 20.3333C36.8059 20.4766 36.9129 20.6024 37.0427 20.7002C37.1064 20.748 37.1751 20.7893 37.2475 20.8231C37.2846 20.8406 37.332 20.848 37.349 20.8835C37.3671 20.9217 37.34 20.9976 37.334 21.0403C37.2802 21.4116 37.2533 21.8015 37.365 22.1655C37.4676 22.5007 37.694 22.7966 37.9879 22.9926C38.5578 23.3727 39.3262 23.3512 39.9252 23.0469C40.0814 22.9676 40.2274 22.8691 40.3576 22.7529C40.6893 23.1947 41.372 23.1807 41.857 23.0549C42.4613 22.898 42.946 22.4825 43.2251 21.9366C43.6072 22.3964 44.4085 22.2472 44.6734 21.7484C44.7383 21.6262 44.7768 21.4917 44.7956 21.3555C44.8056 21.2839 44.7993 21.2116 44.8068 21.1406C44.8162 21.0501 44.8775 20.9621 44.9126 20.8745C44.9809 20.7041 45.0235 20.5281 45.0252 20.3442C45.0261 20.2483 45.014 20.1547 45.0048 20.0595C44.9964 19.9738 45.0203 19.894 45.0341 19.8094C44.8792 19.8346 44.6903 19.7933 44.5443 19.7488C44.4013 19.7052 44.2669 19.5904 44.1659 19.4855C43.9311 19.2419 43.7878 18.9226 43.6897 18.6048C43.4742 17.9073 43.5626 17.0705 44.2717 16.6877C44.6022 16.5093 45.5919 16.5099 45.9856 16.5981C46.3994 16.6907 46.8683 17.5938 46.8916 17.6787C46.9058 17.7313 46.8986 17.7963 46.9475 17.8313C47.0547 17.9083 47.2315 17.7747 47.3106 17.7088C47.4469 17.595 47.5443 17.4436 47.6288 17.2901C47.8123 16.9558 47.9604 16.5974 48.065 16.2314C48.1457 15.9492 48.1972 15.6583 48.3028 15.3833C48.4076 15.1097 48.573 14.8652 48.8301 14.7102C49.1097 14.5416 49.4305 14.4528 49.7375 14.3468C50.0418 14.2418 50.3408 14.1135 50.5769 13.8906C50.6287 13.8416 50.679 13.7896 50.7209 13.7319C50.7539 13.6863 50.7863 13.5992 50.8367 13.5703C50.9146 13.5254 51.0287 13.6422 51.0962 13.6846C51.4293 13.8939 51.7073 14.1857 51.9312 14.5045C52.1542 14.8216 52.337 15.1267 52.4856 15.4808C52.596 15.7434 52.6648 16.0797 52.8587 16.295C52.9452 16.3911 53.5887 16.4492 53.7969 16.3653C54.0053 16.2814 54.239 16.0635 54.3089 15.927C54.3806 15.7873 54.3975 15.6338 54.367 15.4808C54.3491 15.3908 54.3123 15.3068 54.2922 15.2184C54.2753 15.1441 54.2598 15.0739 54.2232 15.0059C54.154 14.877 54.0358 14.7844 53.893 14.7456C54.0417 14.6102 54.1646 14.4482 54.2496 14.2671C54.3382 14.079 54.413 13.8502 54.4343 13.6438C54.4518 13.4761 54.4251 13.3023 54.3322 13.1582C54.2348 13.007 54.0625 12.9084 53.9131 12.814C54.1412 12.6376 54.3363 12.4231 54.4966 12.1855C54.8084 11.7236 55.0014 11.1413 54.843 10.5905Z" fill="#191847"/>
<path fill-rule="evenodd" clip-rule="evenodd" d="M40.521 50.9746L52.65 82.7213L61.1518 106.121H65.9992L54.313 50.9746H40.521Z" fill="#1D4ED8"/>
<path fill-rule="evenodd" clip-rule="evenodd" d="M37.5231 50.9746C37.3911 61.8675 37.4865 76.5331 37.1793 77.2123C36.872 77.8913 18.0696 92.6853 18.0696 92.6853L20.5682 96.8881C20.5682 96.8881 42.8913 82.6482 44.0325 80.751C45.1738 78.854 50.9074 61.3958 53.8906 50.9746H37.5231Z" fill="#0079EB"/>
<path fill-rule="evenodd" clip-rule="evenodd" d="M13.6738 95.5135L17.8941 92.3364L21.2992 96.3506C21.6921 100.89 24.3378 106.532 24.3378 106.532L23.565 107.174L17.4033 99.9101L15.6818 97.1044L15.2953 97.4252L13.6738 95.5135Z" fill="#191847"/>
<path fill-rule="evenodd" clip-rule="evenodd" d="M60.7019 110.612L60.9542 105.372H66.2514C70.0193 107.992 76.0896 109.614 76.0896 109.614V110.612H66.5037L63.2244 110.113V110.612H60.7019Z" fill="#191847"/>
<path fill-rule="evenodd" clip-rule="evenodd" d="M69.9546 53.6281L61.9077 47.7832L60.129 52.1328L68.0974 55.4012C70.3509 58.0199 71.611 59.1114 71.8778 58.6761C72.1028 58.3091 71.927 57.9655 71.765 57.649C71.6389 57.4022 71.521 57.1722 71.6076 56.9602C71.8057 56.4762 73.3196 56.5273 74.754 56.6363C76.1885 56.7455 75.7704 56.1142 75.4244 55.8023C73.9602 54.9355 72.1369 54.2107 69.9546 53.6281ZM27.7558 63.927C28.4952 62.4435 31.0126 47.9849 31.0126 47.9849L36.2842 48.0055C36.2842 48.0055 31.4017 63.5962 31.0126 64.5502C30.5071 65.7893 31.3659 67.5898 31.9481 68.8107C32.0382 68.9995 32.1215 69.1746 32.1924 69.3316C31.3845 69.689 30.9964 69.2568 30.5873 68.8011C30.1251 68.2865 29.636 67.7419 28.4851 68.2717C28.0403 68.4763 27.6193 68.7182 27.2082 68.9547C25.788 69.7712 24.4833 70.5213 22.7085 69.4382C22.4271 69.2664 22.1188 68.6198 22.8638 68.1145C24.7198 66.8555 27.3946 64.6523 27.7558 63.927Z" fill="#FDBA74"/>
<path fill-rule="evenodd" clip-rule="evenodd" d="M45.9937 26.104L48.1751 25.7339C56.2684 32.6497 59.5928 45.9358 69.513 52.974L67.1254 55.9017C49.9151 53.7939 45.6494 37.588 45.9937 26.104Z" fill="#FB923C"/>
<path fill-rule="evenodd" clip-rule="evenodd" d="M36.4846 53.2199C36.4846 53.2199 49.6041 53.2199 55.7855 53.2199C56.6675 53.2199 56.5012 51.9602 56.3738 51.3245C54.9023 43.9883 49.1586 36.0801 49.1586 25.6371L43.5911 24.7734C38.9863 32.0994 37.394 41.1188 36.4846 53.2199Z" fill="#DDE3E9"/>
<path fill-rule="evenodd" clip-rule="evenodd" d="M34.3144 58.4601C33.4469 60.521 32.5964 62.3191 31.7948 63.7003H27.6555C27.21 49.4568 32.6618 38.4969 37.224 31.8884C36.211 31.8168 35.2968 31.3975 34.7187 30.3659C32.6838 26.734 33.4188 24.7342 35.5934 24.0771C36.7892 23.7156 37.9137 23.9623 39.2601 24.2575C40.3617 24.4992 41.6117 24.7735 43.1706 24.7735C43.1711 24.7735 43.1715 24.7735 43.172 24.7735C43.3231 24.7735 43.4606 24.7836 43.5853 24.8028L45.4326 24.907C45.4326 24.907 52.9332 50.0524 49.5699 58.4601H34.3144Z" fill="#FB923C"/>
<path fill-rule="evenodd" clip-rule="evenodd" d="M34.3145 58.4601C35.4526 55.7561 36.6195 52.6001 37.7427 49.3408C38.1608 52.9303 38.8571 56.5353 40.0163 58.4601H34.3145Z" fill="black" fill-opacity="0.1"/>
</svg>
