<svg width="354" height="138" viewBox="0 0 354 138" fill="none" xmlns="http://www.w3.org/2000/svg">
<g opacity="0.15">
<path fill-rule="evenodd" clip-rule="evenodd" d="M278.909 121.857C281.955 133.861 208.072 141.691 144.478 136.227C80.8851 130.762 51.7115 109.424 82.0572 98.0541C112.403 86.6842 275.862 109.853 278.909 121.857Z" fill="#0079EB"/>
</g>
<path fill-rule="evenodd" clip-rule="evenodd" d="M260.646 42.6838C261.618 42.0853 263.127 42.4666 264.106 42.8199C264.483 42.956 265.447 43.3917 266.162 43.882C266.067 43.5422 265.983 43.1993 265.91 42.8537C265.607 41.4327 265.399 39.9847 265.299 38.5452C265.273 38.1695 265.307 37.7501 265.341 37.3251V37.3244C265.353 37.1806 265.364 37.0361 265.374 36.8926C265.335 36.8587 265.308 36.8118 265.297 36.7483C265.293 36.7747 265.291 36.7957 265.289 36.812C265.286 36.8382 265.284 36.8513 265.279 36.8522C265.274 36.8533 265.265 36.8422 265.247 36.8199C265.24 36.8113 265.232 36.8009 265.222 36.789C264.498 35.9178 263.89 34.9359 263.807 33.8567C263.737 32.9415 264.67 31.2097 265.994 32.4086C266.586 32.944 266.433 36.7043 265.543 36.9345C265.781 38.1806 266.079 39.4246 266.454 40.6526C266.51 40.6447 266.567 40.644 266.624 40.6501C266.618 40.3449 266.618 40.0117 266.633 39.8971C266.767 38.9102 267.79 36.9066 269.42 37.2955C270.672 37.5946 269.905 38.8253 269.478 39.3639C268.792 40.2312 268.016 40.6066 267.034 41.0576C267.014 41.244 266.865 41.3524 266.689 41.3876C267.346 43.3709 268.211 45.3052 269.343 47.1325L269.373 47.0163C269.516 46.4616 269.684 45.8151 269.79 45.6792C270.345 44.9684 271.572 44.1002 272.704 44.5208C275.082 45.4054 272.501 47.9476 270.477 48.2242C270.393 48.3178 270.304 48.3932 270.209 48.4364C270.602 48.9878 271.023 49.528 271.472 50.0542C272.147 50.8456 272.872 51.6343 273.632 52.4187C273.655 51.8052 273.956 50.4379 274.041 50.291C274.56 49.3989 276.056 48.4808 277.27 49.1147C278.635 49.8294 277.397 51.1795 276.619 51.7905C276.299 52.0411 274.721 52.9594 274.165 52.9634C276 54.8129 278.027 56.6305 280.088 58.3826C279.917 57.5982 279.694 55.4384 279.719 55.1987C279.847 53.9612 280.856 51.982 282.846 52.4643C284.775 52.9314 283.922 54.9874 283.261 55.9675C282.861 56.5607 282.308 57.1634 281.64 57.5772C281.52 57.6517 281.363 57.7127 281.206 57.7734C281.017 57.8465 280.829 57.9197 280.706 58.0165C280.596 58.1027 280.562 58.2018 280.528 58.3C280.493 58.4036 280.458 58.5063 280.334 58.5923C281.448 59.535 282.569 60.458 283.674 61.3555C284.196 61.779 284.727 62.1944 285.263 62.6045C285.556 62.5066 285.975 62.6354 285.953 62.9702C285.95 63.0187 285.936 63.0607 285.917 63.0991C286.323 63.4036 286.732 63.7061 287.144 64.0052C287.135 63.9181 287.138 63.795 287.157 63.6255C286.86 63.9655 286.872 63.4702 286.882 63.0926C286.885 62.9592 286.888 62.8406 286.877 62.7786C286.833 62.5359 286.777 62.2957 286.721 62.0558C286.6 61.5433 286.48 61.0327 286.486 60.5038C286.499 59.3813 287.382 57.4996 289.239 58.1682C290.946 58.7815 290.325 60.4452 289.681 61.4883C289.273 62.1483 288.715 62.7377 288.132 63.3018C288.028 63.4025 287.913 63.5388 287.798 63.674C287.629 63.8745 287.462 64.0718 287.338 64.1454C288.923 65.2903 290.546 66.4016 292.169 67.5129L292.17 67.5136C292.897 68.0111 293.623 68.5088 294.347 69.0095C294.378 68.8996 294.404 68.7905 294.427 68.6887C294.381 68.7298 294.32 68.749 294.241 68.7452C294.22 68.661 294.189 68.549 294.153 68.4145C293.706 66.7729 292.345 61.7727 296.03 62.7418C298.731 63.4537 296.825 67.8077 294.81 69.3307C296.033 70.181 297.243 71.0424 298.425 71.9294C299.281 72.5711 300.111 73.2348 300.91 73.9208C300.497 73.0325 300.107 71.8829 300.363 70.968C300.735 69.6364 302.479 68.3792 304.181 69.1368C306.303 70.0853 304.67 71.3811 303.139 72.5959C302.358 73.2163 301.602 73.8156 301.387 74.3368C303.926 76.5867 306.093 79.0862 307.541 81.9334C309.117 85.0298 310.579 89.1903 309.77 92.6544C309.919 91.1312 309.281 89.2187 308.832 87.8754C308.771 87.6926 308.714 87.5203 308.662 87.361C307.988 85.2777 307.031 83.2508 305.77 81.3537C303.749 78.3151 301.08 75.7359 297.998 73.3941C297.297 73.5912 296.535 73.956 295.903 74.258C295.516 74.4433 295.178 74.6052 294.934 74.6901C293.755 75.1 291.491 75.6876 290.74 74.3964C290.001 73.1269 291.887 72.4167 293.055 72.1321C294.184 71.8576 295.202 71.8908 296.255 72.1158C294.624 70.9503 292.953 69.8219 291.283 68.6937L291.282 68.6935C290.975 68.4858 290.668 68.2783 290.361 68.0707C289.936 68.3512 289.467 68.7569 288.969 69.1876C287.389 70.5544 285.517 72.1738 283.844 70.8508C281.32 68.8542 286.147 66.8248 288.204 66.9833C288.456 67.0027 288.7 67.0456 288.938 67.1038C286.841 65.6693 284.777 64.205 282.824 62.6377C282.474 62.6894 281.916 63.1047 281.246 63.6041C279.74 64.726 277.667 66.2704 276.105 65.0544C274.978 64.1765 275.364 62.8093 276.453 62.0275C277.547 61.2424 279.133 61.2438 280.481 61.5081C281.064 61.6219 281.602 61.8391 282.103 62.1036C282.124 62.1045 282.145 62.1054 282.165 62.1063C280.244 60.5479 278.311 58.9544 276.449 57.3066C276.416 57.3149 276.383 57.3237 276.35 57.3325C276.237 57.4436 276.048 57.4842 275.876 57.4596C275.781 57.486 275.684 57.5131 275.584 57.5406C274.11 57.9508 272.214 58.4781 270.744 58.2508C269.662 58.0833 268.681 57.3745 269.597 56.5018C270.341 55.7921 272.361 55.8939 273.346 56.0621C273.827 56.1443 274.35 56.3822 274.875 56.621C275.096 56.7212 275.317 56.8217 275.535 56.9108C275.591 56.8187 275.69 56.7596 275.803 56.7312C273.964 55.0752 272.21 53.3621 270.619 51.5745C270.137 51.6345 269.603 51.8052 269.052 51.981C267.726 52.4043 266.304 52.8585 265.283 51.8801C263.775 50.4359 266.61 49.5928 267.958 49.73C268.413 49.7763 268.862 49.8801 269.295 50.0176C268.137 48.5458 267.253 46.9727 266.631 45.3203C266.625 45.3228 266.62 45.3253 266.614 45.3278V45.328C266.606 45.3318 266.597 45.3359 266.586 45.3397C266.595 45.3355 266.604 45.3314 266.612 45.3271C266.618 45.3239 266.624 45.3208 266.63 45.3176C266.568 45.1524 266.509 44.9865 266.452 44.8197C266.347 44.7725 266.249 44.7377 266.201 44.7235C266.814 45.0637 264.231 45.2303 263.747 45.2614C262.677 45.3303 261.244 45.356 260.46 44.6497C259.801 44.0564 259.839 43.1801 260.646 42.6838ZM309.885 92.6594C309.839 93.1612 309.727 93.621 309.517 94C309.674 93.5684 309.795 93.1199 309.885 92.6594Z" fill="#F2F2F2"/>
<path opacity="0.2" fill-rule="evenodd" clip-rule="evenodd" d="M62.3131 7.95519C61.5748 7.50986 60.4289 7.79434 59.685 8.05768C59.3985 8.15925 58.666 8.48397 58.1228 8.84932C58.1949 8.59619 58.259 8.34087 58.315 8.08346C58.5455 7.02505 58.7042 5.94661 58.7812 4.87446C58.8011 4.59482 58.7754 4.2824 58.7494 3.96589V3.96564C58.7407 3.85848 58.7319 3.75086 58.7249 3.64387C58.7547 3.61858 58.7748 3.58363 58.7833 3.53632C58.7862 3.55594 58.7879 3.57168 58.7894 3.5837C58.7917 3.60319 58.7926 3.61295 58.7967 3.61374C58.8005 3.61455 58.8075 3.60628 58.8212 3.58968C58.8264 3.58324 58.8329 3.57554 58.8404 3.56664C59.3904 2.91755 59.8524 2.18621 59.9163 1.38245C59.9703 0.700769 59.262 -0.588684 58.2558 0.304562C57.8057 0.70349 57.9206 3.50384 58.5963 3.67521C58.4151 4.60321 58.1876 5.52971 57.9028 6.44444C57.8602 6.43851 57.8168 6.43799 57.7739 6.44264C57.778 6.21527 57.7786 5.96713 57.7669 5.88181C57.666 5.14687 56.8894 3.65498 55.6516 3.9452C54.7003 4.16825 55.2826 5.08454 55.6061 5.48556C56.1265 6.1312 56.7158 6.41063 57.462 6.74621C57.4769 6.88498 57.5904 6.96563 57.724 6.99181C57.2234 8.46907 56.5659 9.90994 55.7056 11.271L55.6828 11.1846C55.5737 10.7716 55.4468 10.2901 55.3663 10.1889C54.9456 9.65976 54.0136 9.01355 53.1536 9.32714C51.3472 9.98659 53.3061 11.8791 54.8435 12.0844C54.9074 12.1541 54.9748 12.2102 55.0469 12.2423C54.7478 12.6532 54.4284 13.0556 54.0865 13.4475C53.5736 14.0372 53.0229 14.6249 52.4452 15.2092C52.4277 14.7523 52.1999 13.7341 52.1351 13.6248C51.7413 12.9605 50.6056 12.2774 49.6835 12.7497C48.6461 13.2823 49.5858 14.2875 50.1768 14.7424C50.4189 14.9288 51.6173 15.6122 52.0403 15.6151C50.6447 16.993 49.1044 18.3473 47.5384 19.6527C47.6685 19.0685 47.8389 17.4599 47.8202 17.2813C47.7237 16.3599 46.9576 14.8862 45.4467 15.246C43.9805 15.5945 44.6282 17.1253 45.1294 17.8551C45.433 18.2968 45.8528 18.7455 46.3596 19.0534C46.4509 19.1089 46.5702 19.154 46.6892 19.1994C46.8327 19.2538 46.976 19.3082 47.0696 19.3802C47.1531 19.4444 47.1787 19.5181 47.2038 19.5913C47.2306 19.6685 47.2572 19.745 47.3514 19.809C46.5051 20.5113 45.653 21.1992 44.8131 21.8679C44.4167 22.1834 44.0132 22.493 43.6057 22.7985C43.3828 22.7258 43.0651 22.8218 43.0814 23.071C43.0838 23.1073 43.0946 23.1384 43.1086 23.167C42.7999 23.3939 42.4892 23.6192 42.1759 23.8422C42.1832 23.7773 42.1812 23.6857 42.1669 23.5595C42.3921 23.8126 42.3828 23.4437 42.3758 23.1626C42.3734 23.0631 42.3711 22.9748 42.3795 22.9287C42.4128 22.7478 42.456 22.5691 42.4989 22.3903C42.5905 22.0088 42.6818 21.6282 42.6774 21.2343C42.6681 20.3985 41.9988 18.9973 40.5878 19.4958C39.2905 19.9531 39.7616 21.192 40.2505 21.9685C40.5598 22.46 40.9834 22.8987 41.4262 23.3188C41.505 23.3937 41.5928 23.4953 41.6794 23.5957C41.8081 23.745 41.935 23.8919 42.0289 23.9468C40.8241 24.7998 39.5912 25.6279 38.3581 26.456H38.3578L38.3575 26.4563C37.805 26.8273 37.2528 27.1981 36.7029 27.5713C36.6792 27.4895 36.6594 27.4083 36.6425 27.3323C36.6769 27.363 36.7236 27.3774 36.7837 27.3746C36.7997 27.3118 36.8228 27.2284 36.8508 27.1282C37.1909 25.9055 38.2271 22.181 35.4274 22.9041C33.376 23.4351 34.8215 26.6771 36.3505 27.8108C35.4219 28.4443 34.5018 29.0862 33.6036 29.7472C32.9533 30.2252 32.3226 30.7199 31.7155 31.2309C32.03 30.5692 32.3261 29.713 32.1324 29.0316C31.8506 28.0402 30.5267 27.1045 29.2335 27.6692C27.6212 28.3764 28.8607 29.3405 30.0229 30.2449C30.6163 30.7066 31.1895 31.1528 31.3529 31.541C29.4237 33.2173 27.7761 35.0795 26.6748 37.2003C25.477 39.5068 24.3643 42.6057 24.977 45.1854C24.8644 44.051 25.3501 42.6264 25.6914 41.626C25.7381 41.4897 25.7818 41.3614 25.8209 41.2426C26.3338 39.6909 27.0619 38.1812 28.0208 36.7681C29.557 34.5046 31.5857 32.5828 33.9274 30.8378C34.4601 30.9842 35.0389 31.2558 35.5182 31.4806C35.8119 31.6185 36.0687 31.7389 36.2542 31.8021C37.1495 32.1072 38.8686 32.544 39.4398 31.5822C40.0014 30.6362 38.5699 30.108 37.6828 29.8964C36.8254 29.6923 36.0523 29.7174 35.2521 29.8853C36.4917 29.0169 37.7612 28.1758 39.0305 27.3351C39.2642 27.1805 39.4976 27.0259 39.7307 26.871C40.0533 27.0798 40.4092 27.3818 40.7873 27.7024C41.9872 28.7198 43.4085 29.9252 44.6792 28.9393C46.597 27.4516 42.9321 25.9418 41.3702 26.0606C41.1782 26.075 40.9927 26.1071 40.8118 26.1506C42.4055 25.0813 43.9741 23.9903 45.4581 22.8225C45.7242 22.8608 46.1478 23.17 46.6562 23.5416H46.6565C47.7998 24.3767 49.3737 25.5263 50.5604 24.6201C51.4169 23.9661 51.1246 22.948 50.2973 22.3661C49.4667 21.7816 48.2622 21.7832 47.2379 21.9806C46.7954 22.0655 46.387 22.2273 46.0063 22.4245C45.9899 22.4251 45.9745 22.4258 45.959 22.4265C47.4191 21.2653 48.8879 20.0779 50.3031 18.8502C50.3276 18.8564 50.353 18.863 50.3784 18.8695C50.4638 18.9522 50.6071 18.9825 50.7381 18.9641C50.8098 18.9834 50.883 19.0034 50.9577 19.0238L50.9595 19.0243C52.0794 19.3293 53.5191 19.7215 54.6355 19.5516C55.4573 19.4267 56.2032 18.8985 55.5081 18.2487C54.943 17.7205 53.4088 17.797 52.6605 17.9225C52.2953 17.9839 51.8977 18.1613 51.4989 18.3392C51.3311 18.414 51.1634 18.4889 50.9974 18.5554C50.9545 18.4868 50.8796 18.4426 50.7941 18.4215C52.1911 17.1876 53.5246 15.9114 54.7341 14.5796C55.0997 14.6242 55.5054 14.751 55.9238 14.8818C56.9305 15.1966 58.0111 15.5344 58.7871 14.8056C59.9327 13.7295 57.7797 13.1025 56.7561 13.2051C56.4104 13.2397 56.0693 13.3172 55.7403 13.4196C56.6204 12.3232 57.2928 11.1514 57.7657 9.92073C57.7701 9.92254 57.7745 9.92442 57.7786 9.92628C57.7853 9.92924 57.792 9.93219 57.8002 9.935C57.7929 9.93198 57.7867 9.92879 57.7806 9.92563C57.7759 9.92328 57.7713 9.92096 57.7663 9.91868C57.8136 9.79558 57.8588 9.67189 57.902 9.54777C57.9819 9.51257 58.0566 9.48665 58.0925 9.47598C57.6272 9.72958 59.5893 9.85279 59.9566 9.87586C60.769 9.92677 61.8572 9.94549 62.4538 9.41929C62.9544 8.97731 62.9255 8.32462 62.3131 7.95519ZM24.8553 45.0835C24.8912 45.4281 24.9977 45.7424 25.2077 46C25.0537 45.7057 24.9382 45.399 24.8553 45.0835Z" fill="#C1DEE2"/>
<g opacity="0.7">
<path opacity="0.5" fill-rule="evenodd" clip-rule="evenodd" d="M288.596 69.2358C292.43 69.0775 297.171 70.859 297.58 74.1766C297.877 76.5869 297.785 78.9906 298.245 81.3976C298.612 83.3211 299.39 85.1676 300.45 86.9199C301.47 88.6048 303.585 90.0391 304.135 91.8392C304.486 92.9863 304.29 94.5996 303.806 95.7214C303.218 97.0856 303.531 96.9778 304.703 98.1224C306.999 100.365 309.067 102.666 310.529 105.344C312.635 109.203 314.015 113.713 313.234 117.937C313.134 118.473 313.016 120.398 312.089 120.532C311.053 120.683 311.537 119.582 311.593 119.226C311.945 116.958 312.258 114.974 311.833 112.67C310.192 103.779 302.181 97.9212 296.964 90.3754C296.678 89.9861 296.072 89.0595 295.651 88.4483C294.987 87.483 294.319 85.6467 293.419 84.9309C291.725 83.5829 293.283 86.2932 293.612 86.8106C294.03 87.4651 294.489 88.1608 294.917 88.7342C296.874 91.3928 299.059 94.2945 301.08 97.0351C292.338 98.6207 286.181 90.2533 283.835 84.7523C281.902 80.2202 279.59 69.6237 288.596 69.2358Z" fill="#0079EB"/>
<path opacity="0.8" fill-rule="evenodd" clip-rule="evenodd" d="M339.977 60.8186C333.568 61.2234 329.454 64.5902 327.539 69.2991C326.507 71.8367 326.388 74.4436 325.815 77.0516C324.952 80.975 323.096 83.9485 319.467 86.7438C318.343 87.6094 317.515 88.4983 316.927 89.4493C315.758 90.3987 314.741 91.4731 313.993 92.7867C313.038 94.4643 312.768 96.4771 313.87 98.1496C314.167 98.5994 314.906 99.5018 315.673 99.9118C312.804 104.776 311.226 110.104 311.404 115.425C311.511 118.637 311.708 121.85 311.938 125.058C312 125.92 312.352 127.342 312.881 125.898C313.366 124.576 312.758 122.502 312.702 121.122C312.429 114.397 312.195 108.282 315.672 102C316.037 101.341 316.423 100.688 316.826 100.04C316.85 100.029 316.872 100.016 316.894 100.003C316.909 100.012 316.923 100.023 316.938 100.032C316.964 99.9952 316.999 99.9519 317.04 99.9034C317.156 99.8083 317.257 99.6885 317.353 99.5548C317.661 99.2146 318.01 98.8146 318.012 98.5958C318.012 98.5942 318.011 98.5915 318.011 98.5897C320.163 95.7924 322.628 93.1493 325.147 90.5576C325.128 90.5766 327.878 87.5951 327.453 89.2438C327.248 90.0385 325.225 91.5516 324.408 92.3932C322.6 94.2655 320.478 96.6381 318.714 98.9322C318.477 99.0409 318.142 99.5738 317.899 99.9711C317.765 100.172 317.64 100.375 317.517 100.552C323.767 102.196 328.628 98.8844 331.943 95.033C331.947 95.0283 331.951 95.0236 331.955 95.0191C332.964 93.955 333.997 92.8983 335.288 92.057C337.442 90.6531 339.748 90.4054 342.288 89.7146C349.213 87.8307 352.158 80.685 353.093 75.383C354.148 69.4013 348.987 60.2289 339.977 60.8186Z" fill="#0079EB"/>
<path opacity="0.5" fill-rule="evenodd" clip-rule="evenodd" d="M327.318 44.0677C320.741 49.5176 317.563 57.0768 315.047 64.1834C312.237 72.1205 310.38 80.1801 310.309 88.4324C310.263 93.8543 310.077 99.3099 310.475 104.725C310.616 106.649 310.857 108.575 311.239 110.478C311.271 110.634 312.128 114.883 312.947 113.893C313.414 113.33 312.069 109.486 311.968 108.845C311.396 105.239 311.264 101.607 311.291 97.9746C311.337 91.9943 311.116 86.0449 311.877 80.0867C311.991 79.1969 312.08 78.2627 312.346 77.3924C312.628 76.4671 312.269 76.8711 313.186 76.5047C314.079 76.1488 315.181 76.1995 316.106 75.7528C319.777 73.9807 321.654 69.4287 323.116 66.442C324.787 63.0268 325.803 59.3846 326.615 55.7903C327.211 53.1497 327.637 50.5249 327.878 47.8501C327.954 47.007 327.958 46.1256 328.166 45.2966C328.222 45.0731 328.503 44.6776 328.493 44.4795C328.472 44.0604 328.154 43.814 328.128 43.4619C327.853 43.6591 327.582 43.8612 327.318 44.0677Z" fill="#0079EB"/>
<path opacity="0.95" fill-rule="evenodd" clip-rule="evenodd" d="M291.454 116.681C291.454 125.694 300.631 133 311.952 133C323.273 133 332.45 125.694 332.45 116.681" fill="#0079EB"/>
<path opacity="0.5" fill-rule="evenodd" clip-rule="evenodd" d="M325.999 102.392C331.072 102.094 336.738 105.353 339.185 108.744C341.158 111.478 340.825 115.068 339.607 117.972C338.791 119.917 337.01 122.689 334.04 122.716C330.325 122.75 330.146 119.094 330.074 116.957C329.978 114.115 329.528 111.64 326.715 109.703C326.368 109.464 326.004 109.24 325.639 109.017C325.316 108.818 324.993 108.619 324.681 108.41C324.632 108.377 324.581 108.343 324.531 108.31C323.537 107.644 322.493 106.945 322.365 105.848C322.181 104.259 323.308 103.973 325.029 104.268C325.084 104.278 325.235 104.323 325.44 104.385C326.319 104.65 328.194 105.216 327.839 104.54C327.706 104.285 327.218 104.083 326.602 103.931C325.009 103.793 323.109 103.633 322.562 103.729C316.667 104.759 314.371 111.26 313.762 115.391C313.696 115.837 313.643 116.284 313.596 116.732H312.513C312.589 115.651 312.688 114.571 312.915 113.501C313.784 109.409 316.501 103.399 322.459 102.735C322.679 102.711 323.488 102.706 324.467 102.752C324.931 102.546 325.451 102.421 325.999 102.392Z" fill="#0079EB"/>
</g>
<g opacity="0.5">
<path opacity="0.6" fill-rule="evenodd" clip-rule="evenodd" d="M51.5504 37.3828C52.7658 36.003 55.0217 32.4985 56.7323 32.0055C57.8343 31.6879 57.5129 34.9729 57.5265 35.5993C57.5795 38.0228 57.2833 40.4309 56.9174 42.8339C56.2579 47.1681 54.1022 51.0277 51.1452 54.7164C49.6237 56.6144 47.8388 58.5357 45.3669 59.7198C44.2293 60.2654 42.8603 60.3565 41.7366 60.8266C40.4277 61.3735 41.1404 60.9313 40.5507 62.0169C39.7318 63.5244 39.4697 65.4691 39.0908 67.0774C37.351 74.4611 33.1384 113.492 33.8688 121.002C33.9336 121.668 32.7679 121.827 32.7095 121.015C32.4003 116.706 35.0769 86.8658 36.4277 77.1075C37.7782 67.3489 39.1449 58.7277 40.5151 55.3518C42.1777 51.2557 45.18 46.3301 47.6794 42.5104C48.8405 40.736 50.1059 39.0225 51.5504 37.3828Z" fill="#0079EB"/>
<path opacity="0.4" fill-rule="evenodd" clip-rule="evenodd" d="M60.5723 85.2433C63.7352 83.3946 67.159 86.8836 64.2966 88.7326C62.7144 89.7546 61.0602 89.3912 60.1291 88.5394C59.5246 89.1261 58.9588 89.7396 58.415 90.2575C56.7585 91.8366 55.1931 93.4529 53.6969 95.1071C50.5886 98.5439 47.9249 102.175 45.1398 105.739C42.3914 109.257 39.6649 112.792 37.1736 116.399C35.0633 119.455 32.2504 123.05 31.5278 126.4C32.6241 119.295 36.784 112.466 41.7377 106.202C46.6511 99.9898 52.2897 93.2054 59.8974 88.3029C59.1231 87.3962 59.1017 86.1023 60.5723 85.2433Z" fill="#0079EB"/>
<path opacity="0.6" fill-rule="evenodd" clip-rule="evenodd" d="M0.553388 67.9153C2.32335 68.1907 5.21547 71.3785 6.67446 72.5931C8.40837 74.0365 9.98144 75.5748 11.4643 77.1868C14.6565 80.6563 17.5113 84.345 19.9389 88.1917C23.8964 94.4626 27.0671 100.9 29.3681 107.729C30.7767 111.909 31.6887 116.241 32.229 120.543C32.3311 121.355 33.3996 127.61 31.8599 127.779C30.4753 127.931 30.9031 123.029 30.8363 122.362C30.0811 114.84 27.8189 107.521 24.6725 100.43C23.9869 98.8859 23.3503 96.9941 22.2541 95.6041C21.4648 94.603 22.2485 94.9521 20.8613 94.5733C19.6702 94.2477 18.3131 94.3274 17.0934 93.9288C14.4437 93.0638 12.3221 91.3843 10.4623 89.695C6.84815 86.4118 3.98409 82.8601 2.49117 78.6533C1.66302 76.3209 0.901988 73.9748 0.479659 71.5701C0.37041 70.9486 -0.58665 67.7377 0.553388 67.9153Z" fill="#0079EB"/>
<path opacity="0.8" fill-rule="evenodd" clip-rule="evenodd" d="M7.53815 14.8773C14.2053 24.0828 19.684 34.1948 23.2216 44.4367C25.3652 50.6422 26.8641 57.0101 28.3534 63.3316C30.6593 73.1201 32.8405 82.9077 33.4609 92.8701C34.0851 102.89 35.3193 114.447 31.1984 124.098C33.257 114.3 31.2971 103.87 30.95 94.0112C30.7842 89.3046 30.3038 84.6441 29.6732 79.9649C29.0615 75.426 28.0621 70.9087 27.1316 66.4055C26.6784 64.2122 26.2023 62.0225 25.7175 59.8338C25.5726 59.1808 25.5115 57.2431 24.9912 56.7971C24.4676 56.348 21.796 56.1649 20.9572 55.8354C19.2681 55.1719 17.6793 54.2294 16.2733 53.2334C13.5777 51.3241 11.2328 48.8294 9.38195 46.3702C5.0996 40.6803 3.38752 33.7363 3.47406 27.1465C3.49066 25.867 6.07514 12.0895 5.03718 11.8998C5.09968 11.8415 5.15878 11.7813 5.21452 11.7188C6.00034 12.7663 6.77147 13.8209 7.53815 14.8773Z" fill="#0079EB"/>
<path opacity="0.8" fill-rule="evenodd" clip-rule="evenodd" d="M79.4982 48.0777C79.6012 47.9595 80.2708 47.1381 79.9336 47.1906C80.6199 47.0835 78.9895 48.0966 80.6998 47.475C79.8876 48.0857 80.3564 48.8788 80.3671 49.7007C80.3848 51.0352 80.1045 52.3585 79.7889 53.6642C79.29 55.7282 78.5469 57.7349 77.4683 59.6546C75.1176 63.8382 71.126 67.8654 66.3873 70.481C64.0478 71.7722 61.7553 72.212 59.0873 72.8064C57.4018 73.182 57.2682 73.8761 56.3735 75.1781C54.5114 77.8899 52.6822 80.5919 51.0396 83.3951C49.0785 86.7428 47.1746 90.0939 45.3787 93.5003C39.3285 104.974 34.4044 116.862 31.8185 129.164C31.7552 121.914 33.8618 114.448 36.5188 107.538C38.4544 102.503 40.9741 97.6498 43.6617 92.8458C44.3128 91.682 45.2997 90.1849 45.5766 88.8999C45.7701 87.9995 45.178 87.1338 44.9069 86.1853C43.85 82.4922 43.9258 78.3547 44.8537 74.6418C45.8771 70.5475 48.8361 68.6472 53.8418 68.0674C55.6724 67.855 57.9994 67.9329 59.6779 67.3113C61.5068 66.6348 62.2612 64.4102 63.3013 62.9824C66.0946 59.1466 69.4134 55.468 73.2242 52.2362C74.2794 51.3413 75.4141 50.5155 76.6179 49.7502C77.3772 49.2673 78.9811 48.6725 79.4982 48.0777Z" fill="#0079EB"/>
<path opacity="0.89" fill-rule="evenodd" clip-rule="evenodd" d="M21.9379 122.653C21.8091 121.958 22.4859 121.334 23.3685 121.334H41.1335C42.0159 121.334 42.6928 121.958 42.5641 122.653L41.191 130.066C40.7725 132.326 38.337 134 35.468 134H29.034C26.1649 134 23.7295 132.326 23.3109 130.066L21.9379 122.653Z" fill="#0079EB"/>
</g>
<g opacity="0.5">
<path fill-rule="evenodd" clip-rule="evenodd" d="M46.3474 124.01C46.3474 129.301 46.8718 133.59 53.9104 133.59C60.949 133.59 61.4734 129.301 61.4734 124.01" fill="#0079EB"/>
<path fill-rule="evenodd" clip-rule="evenodd" d="M56.0044 120.71C55.7464 121.065 55.5164 121.427 55.3132 121.795C55.306 121.037 55.3586 120.275 55.5022 119.501C55.7477 118.177 56.1227 116.859 56.475 115.544C56.7283 114.598 56.7122 112.9 57.6733 112.147C57.9368 111.984 58.0002 112.303 58.0002 112.442C58.0036 112.471 57.9995 111.876 57.7437 111.98C56.2233 112.605 55.7306 114.571 55.2439 115.555C54.5337 116.992 53.9294 118.46 53.6806 119.955C53.6177 120.332 53.5835 120.71 53.5756 121.087C53.5239 120.986 53.4754 120.884 53.4217 120.784C52.5441 119.146 51.3599 117.546 49.8829 116.072C49.5193 115.709 44.9479 112.129 44.59 112.677C44.6254 112.757 44.6993 112.823 44.812 112.875C44.8186 112.881 44.8188 112.878 44.815 112.869C45.0834 113.214 45.8468 113.747 46.0846 114.05C46.6829 114.811 47.148 115.619 47.6206 116.412C48.6191 118.087 49.5454 119.779 50.4433 121.474C50.6524 121.869 50.8703 122.262 51.0927 122.653C48.8008 120.021 45.7434 117.632 41.5347 116.264C42.9721 116.846 43.9146 117.942 44.8854 118.78C46.0562 119.792 47.2894 120.777 48.4625 121.787C49.8461 122.979 51.4741 124.235 52.8049 125.554C54.094 127.709 55.3467 129.866 56.1199 132.13C55.8031 131.348 56.0951 130.266 56.0409 129.445C55.9978 128.791 55.9018 128.143 55.7704 127.496C55.9329 127.788 56.0731 128.08 56.1365 128.352C56.0786 127.896 56.0118 127.443 55.9401 126.993C56.1242 126.571 56.3049 126.177 56.4271 125.853C57.0528 124.19 57.7979 122.556 58.8127 120.963C59.7516 119.489 60.8287 118.034 62.0023 116.624C62.5497 115.966 63.1048 115.311 63.6564 114.655C64.0172 114.225 64.3609 113.537 64.8635 113.126C61.6148 115.49 58.0655 117.872 56.0044 120.71Z" fill="#0079EB"/>
</g>
<path fill-rule="evenodd" clip-rule="evenodd" d="M344.702 24.537C343.864 22.3124 341.897 20.5711 339.856 18.9759C335.881 15.8701 333.743 13.9498 332.327 9.40652C331.494 6.73453 330.646 3.90305 328.003 1.96449C326.079 0.552788 322.768 -0.633282 320.195 0.377588C316.237 2.25858 315.174 6.11868 315.573 9.57517C316.068 13.8592 318.581 16.5008 323.41 18.0787C326.131 18.9674 327.94 20.1401 329.417 22.1834C330.598 23.8172 331.287 25.8631 332.771 27.3442C334.991 29.5585 337.768 30.5426 341.192 30.1748C337.985 25.4777 334.239 20.7363 329.72 16.7815C329.297 16.3839 326.802 14.862 327.305 14.1844C327.859 13.4383 330.421 16.241 330.403 16.2241C331.716 17.4242 332.931 18.6996 334.124 19.9872C334.121 19.9883 334.118 19.9892 334.114 19.9903C335.343 21.3118 336.562 22.6524 337.757 24.0099C338.241 24.5842 338.712 25.1656 339.162 25.7619C339.823 26.6366 340.873 29.1194 341.954 29.6573C342.186 29.7722 342.4 29.8366 342.6 29.863C343.338 30.8254 344.056 31.7954 344.74 32.7768C346.523 35.3401 348.055 38.0464 348.757 40.9403C348.962 41.7851 348.817 44.9446 349.541 45.5545C350.866 46.6698 350.478 44.5219 350.398 43.8736C349.741 38.5054 347.32 33.9319 343.805 29.4188C344.885 28.2961 345.041 25.4384 344.702 24.537Z" fill="#F2F2F2"/>
<path fill-rule="evenodd" clip-rule="evenodd" d="M299.353 27.1312C300.749 25.8218 304.104 25.5996 306.157 25.6872C308.696 25.7957 311.304 26.2879 313.72 26.883C317.7 27.8631 321.567 29.652 325.073 31.3834C325.495 31.592 330.699 34.0835 330.238 34.5208C329.782 34.954 324.673 31.9944 323.535 31.4842C321.105 30.3955 318.877 29.1079 316.199 28.3887C313.426 27.644 310.493 27.3491 307.577 27.3695C307.203 27.3722 305.982 27.1645 305.956 27.6053C305.93 28.0364 307.95 27.8115 308.306 27.8141C309.777 27.8249 311.258 27.9351 312.708 28.1381C315.425 28.5183 317.979 29.2842 320.306 30.4592C319.657 31.6613 318.1 32.2155 316.467 31.9146C315.056 31.6546 313.681 31.0132 312.298 30.8279C311.347 30.7002 310.394 30.7762 309.471 30.9897C307.036 31.5529 305.632 32.7069 302.956 31.9041C300.858 31.275 297.348 29.0142 299.353 27.1312Z" fill="#F2F2F2"/>
<path fill-rule="evenodd" clip-rule="evenodd" d="M293.35 6.03246C290.251 5.85247 286.79 7.82188 285.294 9.87132C284.089 11.5237 284.292 13.6935 285.037 15.4491C285.535 16.6243 286.623 18.3 288.438 18.3164C290.708 18.3368 290.817 16.1271 290.861 14.8354C290.919 13.118 291.195 11.6219 292.913 10.4513C293.125 10.3069 293.348 10.1716 293.57 10.0363C293.768 9.91627 293.965 9.79623 294.155 9.66978C294.186 9.64957 294.216 9.62934 294.247 9.60907C294.855 9.20687 295.493 8.78446 295.57 8.12153C295.683 7.1608 294.994 6.98791 293.943 7.16639C293.909 7.17214 293.817 7.19966 293.692 7.23706C293.155 7.39733 292.009 7.73934 292.226 7.33051C292.308 7.17645 292.606 7.05437 292.982 6.96291C293.955 6.87955 295.116 6.78282 295.45 6.84061C299.052 7.46296 300.454 11.3925 300.827 13.8892C300.869 14.1719 300.903 14.4555 300.932 14.7396H301.592C301.546 14.0724 301.486 13.4063 301.344 12.7465C300.813 10.2735 299.153 6.64133 295.513 6.23994C295.379 6.22498 294.885 6.22246 294.286 6.25011C294.003 6.12528 293.685 6.0498 293.35 6.03246Z" fill="#F2F2F2"/>
</svg>
