<svg width="19" height="20" viewBox="0 0 19 20" fill="none" xmlns="http://www.w3.org/2000/svg">
<path fill-rule="evenodd" clip-rule="evenodd" d="M9.24458 -8.08187e-07C5.32106 -4.65182e-07 2.14042 3.18064 2.14042 7.10417L2.14042 7.74959C2.14042 8.38844 1.95132 9.01299 1.59695 9.54454L0.544066 11.1239C-0.677939 12.9569 0.25496 15.4484 2.38034 16.028C3.07298 16.2169 3.77147 16.3767 4.47401 16.5074L4.47575 16.5121C5.18066 18.393 7.0647 19.7083 9.24453 19.7083C11.4244 19.7083 13.3084 18.393 14.0133 16.5121L14.015 16.5074C14.7176 16.3768 15.4161 16.217 16.1088 16.028C18.2342 15.4484 19.1671 12.9569 17.9451 11.1239L16.8922 9.54454C16.5379 9.01299 16.3488 8.38844 16.3488 7.74959L16.3488 7.10417C16.3488 3.18064 13.1681 -1.15119e-06 9.24458 -8.08187e-07ZM12.3396 16.7631C10.2836 17.0087 8.20545 17.0087 6.14941 16.763C6.80112 17.6994 7.93464 18.3333 9.24453 18.3333C10.5544 18.3333 11.6879 17.6994 12.3396 16.7631ZM3.51542 7.10417C3.51542 3.94004 6.08045 1.375 9.24458 1.375C12.4087 1.375 14.9738 3.94003 14.9738 7.10417L14.9738 7.74959C14.9738 8.6599 15.2432 9.54983 15.7481 10.3073L16.801 11.8866C17.5024 12.9387 16.967 14.3688 15.747 14.7015C11.4898 15.8626 6.99935 15.8626 2.74212 14.7015C1.52219 14.3688 0.986726 12.9387 1.68813 11.8866L2.74102 10.3073C3.24597 9.54983 3.51542 8.6599 3.51542 7.74959L3.51542 7.10417Z" fill="#1C274C"/>
</svg>
