<svg width="77" height="77" viewBox="0 0 77 77" fill="none" xmlns="http://www.w3.org/2000/svg">
<path d="M35.7599 9.69755C36.979 7.51051 37.5886 6.41699 38.5 6.41699C39.4113 6.41699 40.0209 7.51051 41.24 9.69755L41.5554 10.2634C41.9019 10.8849 42.0751 11.1956 42.3452 11.4006C42.6153 11.6057 42.9517 11.6818 43.6244 11.834L44.2369 11.9726C46.6043 12.5082 47.7881 12.7761 48.0697 13.6817C48.3513 14.5873 47.5443 15.531 45.9304 17.4183L45.5128 17.9066C45.0542 18.4429 44.8249 18.711 44.7217 19.0428C44.6185 19.3745 44.6532 19.7323 44.7225 20.4479L44.7857 21.0993C45.0297 23.6174 45.1517 24.8765 44.4144 25.4362C43.6771 25.9959 42.5688 25.4856 40.3521 24.465L39.7787 24.2009C39.1488 23.9109 38.8338 23.7659 38.5 23.7659C38.1661 23.7659 37.8512 23.9109 37.2213 24.2009L36.6478 24.465C34.4312 25.4856 33.3228 25.9959 32.5855 25.4362C31.8482 24.8765 31.9702 23.6174 32.2143 21.0994L32.2774 20.4479C32.3467 19.7323 32.3814 19.3745 32.2782 19.0428C32.1751 18.711 31.9457 18.4429 31.4871 17.9066L31.0696 17.4183C29.4556 15.531 28.6486 14.5873 28.9302 13.6817C29.2119 12.7761 30.3956 12.5082 32.763 11.9726L33.3755 11.834C34.0483 11.6818 34.3846 11.6057 34.6547 11.4006C34.9248 11.1956 35.098 10.8849 35.4445 10.2634L35.7599 9.69755Z" fill="#93C5FD"/>
<path d="M41.7083 32.0837H35.2916C30.7544 32.0837 28.4857 32.0837 27.0762 33.4932C25.6666 34.9028 25.6666 37.1714 25.6666 41.7087V70.5837H51.3333V60.9587V41.7087C51.3333 37.1714 51.3333 34.9028 49.9237 33.4932C48.5142 32.0837 46.2456 32.0837 41.7083 32.0837Z" fill="#93C5FD"/>
<g opacity="0.5">
<path d="M24.2571 62.3676C22.8475 60.958 20.5789 60.958 16.0416 60.958C11.5044 60.958 9.23572 60.958 7.82617 62.3676C6.41663 63.7771 6.41663 66.0457 6.41663 70.583H25.6666C25.6666 66.0457 25.6666 63.7771 24.2571 62.3676Z" fill="#93C5FD"/>
<path d="M51.3333 60.958V70.583H70.5833V60.958C70.5833 56.4207 70.5833 54.1521 69.1737 52.7426C67.7642 51.333 65.4956 51.333 60.9583 51.333C56.421 51.333 54.1524 51.333 52.7428 52.7426C51.3333 54.1521 51.3333 56.4207 51.3333 60.958Z" fill="#93C5FD"/>
</g>
</svg>
